<?xml version="1.0" encoding="UTF-8" standalone="no"?>
<!-- Created with Inkscape (http://www.inkscape.org/) -->

<svg
   xmlns:dc="http://purl.org/dc/elements/1.1/"
   xmlns:cc="http://creativecommons.org/ns#"
   xmlns:rdf="http://www.w3.org/1999/02/22-rdf-syntax-ns#"
   xmlns:svg="http://www.w3.org/2000/svg"
   xmlns="http://www.w3.org/2000/svg"
   xmlns:sodipodi="http://sodipodi.sourceforge.net/DTD/sodipodi-0.dtd"
   xmlns:inkscape="http://www.inkscape.org/namespaces/inkscape"
   width="465"
   height="720"
   viewBox="0 0 744.09448819 1052.3622047"
   id="svg2"
   version="1.1"
   inkscape:version="0.92.2 (30a58d1, 2017-08-07)"
   sodipodi:docname="n14-n15.svg">
  <defs
     id="defs4" />
  <sodipodi:namedview
     id="base"
     pagecolor="#ffffff"
     bordercolor="#666666"
     borderopacity="1.0"
     inkscape:pageopacity="0.0"
     inkscape:pageshadow="2"
     inkscape:zoom="5.6"
     inkscape:cx="101.55201"
     inkscape:cy="203.72948"
     inkscape:document-units="px"
     inkscape:current-layer="layer1"
     showgrid="true"
     inkscape:window-width="3200"
     inkscape:window-height="1674"
     inkscape:window-x="0"
     inkscape:window-y="60"
     inkscape:window-maximized="1"
     showguides="false">
    <inkscape:grid
       type="xygrid"
       id="grid3451" />
  </sodipodi:namedview>
  <metadata
     id="metadata7">
    <rdf:RDF>
      <cc:Work
         rdf:about="">
        <dc:format>image/svg+xml</dc:format>
        <dc:type
           rdf:resource="http://purl.org/dc/dcmitype/StillImage" />
        <dc:title />
      </cc:Work>
    </rdf:RDF>
  </metadata>
  <g
     inkscape:label="Layer 1"
     inkscape:groupmode="layer"
     id="layer1">
    <path
       id="path3398"
       transform="matrix(1.6002032,0,0,1.6002032,0,-49.89205)"
       style="fill:#008cba;stroke:none;stroke-width:0.62492061;fill-opacity:1"
       d="m 108.9043,522.71484 0.0117,0.29688 h -0.56446 c -0.0506,0 -0.57411,0.0183 -0.70312,0.0215 0.0132,0.0353 0.0299,0.0694 0.041,0.10547 0.0114,0.0369 -0.0263,-0.0641 -0.0469,-0.10547 -0.6776,0.0166 -1.90783,0.0557 -3.67578,0.11133 -6.277083,0.19928 -51.509989,0.0332 -54.382816,-0.19922 -0.415148,-0.0332 -2.508225,-0.082 -4.65039,-0.11523 l -3.902344,-0.0508 -0.05078,0.44922 c -0.03321,0.23248 -0.215764,0.58101 -0.431641,0.73046 -0.348724,0.28231 -0.564375,1.11172 -0.863281,3.35352 -0.04982,0.31552 -0.148412,0.89735 -0.248047,1.3125 -0.08303,0.41515 -0.09963,0.81444 -0.0332,0.88086 0.298907,0.2657 56.443401,0.56451 63.816403,0.33203 4.18484,-0.12778 5.46532,-0.12799 5.70703,0.0195 2e-5,-0.55442 7e-5,-1.10967 0,-1.66406 -2e-5,-0.46457 -1.5e-4,-0.92801 0,-1.39258 -3e-4,-0.58099 -0.002,-1.16315 0.002,-1.74414 0.003,-0.58004 -0.0125,-1.15834 -0.01,-1.73828 0.007,-0.10539 0.0146,-0.211 0.0215,-0.31641 -0.0169,-0.0818 -0.0115,-0.11228 0.002,-0.12695 -0.0156,-0.0549 -0.0225,-0.10608 -0.0352,-0.1582 -0.001,-9e-4 -0.003,-0.001 -0.004,-0.002 z m 0.0391,0.16016 c 0.001,0.005 0.004,0.0146 0.006,0.0195 6.7e-4,-0.01 8.5e-4,-0.0195 0.002,-0.0293 -0.003,0.002 -0.005,0.007 -0.008,0.01 z m 0.006,0.0195 c -0.002,0.0358 -0.005,0.0716 -0.008,0.10742 0.0144,0.07 0.0442,0.17524 0.10547,0.36133 0.0254,0.0773 0.0642,0.14955 0.0957,0.22461 -0.0775,-0.27466 -0.14336,-0.51819 -0.19336,-0.69336 z" />
  </g>
</svg>
