<?xml version="1.0" encoding="UTF-8" standalone="no"?>
<!-- Created with Inkscape (http://www.inkscape.org/) -->

<svg
   xmlns:dc="http://purl.org/dc/elements/1.1/"
   xmlns:cc="http://creativecommons.org/ns#"
   xmlns:rdf="http://www.w3.org/1999/02/22-rdf-syntax-ns#"
   xmlns:svg="http://www.w3.org/2000/svg"
   xmlns="http://www.w3.org/2000/svg"
   xmlns:sodipodi="http://sodipodi.sourceforge.net/DTD/sodipodi-0.dtd"
   xmlns:inkscape="http://www.inkscape.org/namespaces/inkscape"
   width="465"
   height="720"
   viewBox="0 0 744.09448819 1052.3622047"
   id="svg2"
   version="1.1"
   inkscape:version="0.92.2 (30a58d1, 2017-08-07)"
   sodipodi:docname="n14-n17.svg">
  <defs
     id="defs4" />
  <sodipodi:namedview
     id="base"
     pagecolor="#ffffff"
     bordercolor="#666666"
     borderopacity="1.0"
     inkscape:pageopacity="0.0"
     inkscape:pageshadow="2"
     inkscape:zoom="0.7"
     inkscape:cx="-229.87184"
     inkscape:cy="333.3038"
     inkscape:document-units="px"
     inkscape:current-layer="layer1"
     showgrid="true"
     inkscape:window-width="3200"
     inkscape:window-height="1674"
     inkscape:window-x="0"
     inkscape:window-y="60"
     inkscape:window-maximized="1"
     showguides="false">
    <inkscape:grid
       type="xygrid"
       id="grid3451" />
  </sodipodi:namedview>
  <metadata
     id="metadata7">
    <rdf:RDF>
      <cc:Work
         rdf:about="">
        <dc:format>image/svg+xml</dc:format>
        <dc:type
           rdf:resource="http://purl.org/dc/dcmitype/StillImage" />
        <dc:title />
      </cc:Work>
    </rdf:RDF>
  </metadata>
  <g
     inkscape:label="Layer 1"
     inkscape:groupmode="layer"
     id="layer1">
    <path
       id="path3398"
       transform="matrix(1.6002032,0,0,1.6002032,0,-49.89205)"
       style="fill:#008cba;stroke:none;stroke-width:0.62492061;fill-opacity:1"
       d="m 206.67578,373.89062 c -0.63176,0.009 -1.26472,0.008 -1.89648,0.006 -0.77114,-3.2e-4 -1.54136,7e-5 -2.3125,0 -0.66745,-2e-4 -1.33451,-10e-6 -2.00196,0 h -0.76172 l 0.0137,2.18555 c 0,1.31187 0.0332,2.9404 0.0664,3.62109 0.43175,9.06685 0.79678,23.33139 1.16211,44.3379 0.13285,7.72175 0.31638,17.38563 0.41602,21.5039 0.14945,6.67559 0.48137,20.9898 0.76367,33.79297 0.39854,17.38642 0.4825,41.18254 0.15039,41.49805 -0.0996,0.083 -2.75688,0.20018 -6.31055,0.25 -3.37101,0.0498 -7.60597,0.13182 -9.38281,0.18164 -1.77683,0.0498 -6.19339,0.1162 -9.79687,0.16601 -8.93399,0.13285 -23.03375,0.41703 -39.52344,0.83203 -5.24748,0.13285 -12.00521,0.28222 -15.02734,0.33204 -2.34577,0.0389 -4.17972,0.0951 -5.1836,0.14257 v 2.29493 4.46484 c 0.8659,-0.0497 3.55251,-0.14576 7.85742,-0.26172 4.91536,-0.13285 9.63163,-0.28221 10.44532,-0.33203 0.83029,-0.0332 3.70242,-0.1162 6.39257,-0.16602 2.69017,-0.0498 5.87763,-0.11619 7.05664,-0.16601 1.19563,-0.0498 4.06971,-0.1162 6.39454,-0.16602 2.32483,-0.0498 6.02676,-0.11619 8.21875,-0.16601 16.78859,-0.36533 21.78836,-0.43165 31.88476,-0.39844 8.80115,0.0332 11.50776,0.0839 11.70703,0.25 0.16606,0.13285 0.54673,0.16505 1.11133,0.11523 0.8303,-0.083 0.88182,-0.1151 0.96484,-0.61328 0.0498,-0.2823 0.083,-0.66499 0.0664,-0.84765 -0.0166,-0.18267 0.0332,-3.43651 0.0996,-7.22266 0.11624,-6.01135 -0.0497,-21.20702 -0.33203,-32.38281 -0.0498,-1.77684 -0.11816,-5.36371 -0.16797,-7.9707 -0.0498,-2.60714 -0.13281,-6.01034 -0.16602,-7.55469 -0.0498,-1.56096 -0.11619,-5.03249 -0.16601,-7.72266 -0.0996,-5.59619 -0.19819,-10.01308 -0.41406,-19.67773 -0.083,-3.75295 -0.23254,-10.84343 -0.33203,-15.77539 -0.31552,-17.30339 -0.49901,-26.43768 -0.58204,-29.47657 -0.0332,-1.6938 -0.11521,-5.72864 -0.18164,-8.96679 -0.0498,-3.23816 -0.11717,-6.16105 -0.15039,-6.47657 -0.0323,-0.43678 -0.10908,-8.31004 -0.082,-9.63086 z" />
  </g>
</svg>
