<?xml version="1.0" encoding="UTF-8" standalone="no"?>
<!-- Created with Inkscape (http://www.inkscape.org/) -->

<svg
   xmlns:dc="http://purl.org/dc/elements/1.1/"
   xmlns:cc="http://creativecommons.org/ns#"
   xmlns:rdf="http://www.w3.org/1999/02/22-rdf-syntax-ns#"
   xmlns:svg="http://www.w3.org/2000/svg"
   xmlns="http://www.w3.org/2000/svg"
   xmlns:sodipodi="http://sodipodi.sourceforge.net/DTD/sodipodi-0.dtd"
   xmlns:inkscape="http://www.inkscape.org/namespaces/inkscape"
   width="465"
   height="720"
   viewBox="0 0 744.09448819 1052.3622047"
   id="svg2"
   version="1.1"
   inkscape:version="0.92.2 (30a58d1, 2017-08-07)"
   sodipodi:docname="n17-n18.svg">
  <defs
     id="defs4" />
  <sodipodi:namedview
     id="base"
     pagecolor="#ffffff"
     bordercolor="#666666"
     borderopacity="1.0"
     inkscape:pageopacity="0.0"
     inkscape:pageshadow="2"
     inkscape:zoom="8.692994"
     inkscape:cx="212.04543"
     inkscape:cy="325.46746"
     inkscape:document-units="px"
     inkscape:current-layer="layer1"
     showgrid="true"
     inkscape:window-width="3200"
     inkscape:window-height="1674"
     inkscape:window-x="0"
     inkscape:window-y="60"
     inkscape:window-maximized="1"
     showguides="false">
    <inkscape:grid
       type="xygrid"
       id="grid3451" />
  </sodipodi:namedview>
  <metadata
     id="metadata7">
    <rdf:RDF>
      <cc:Work
         rdf:about="">
        <dc:format>image/svg+xml</dc:format>
        <dc:type
           rdf:resource="http://purl.org/dc/dcmitype/StillImage" />
        <dc:title />
      </cc:Work>
    </rdf:RDF>
  </metadata>
  <g
     inkscape:label="Layer 1"
     inkscape:groupmode="layer"
     id="layer1">
    <path
       id="path3398"
       transform="matrix(1.6002032,0,0,1.6002032,0,-49.89205)"
       style="fill:#008cba;stroke:none;stroke-width:0.62492061;fill-opacity:1"
       d="m 266.19922,365.04883 c -0.26131,0.14181 -1.2863,0.19205 -4.83984,0.27344 -2.72338,0.0664 -7.1575,0.18259 -9.84766,0.26562 -2.69017,0.083 -6.54342,0.19823 -8.55274,0.24805 -2.00932,0.0498 -4.55049,0.1162 -5.64648,0.16601 -1.09599,0.0498 -4.4992,0.11816 -7.55469,0.16797 -3.05549,0.0498 -6.94095,0.1162 -8.63476,0.16602 -1.69381,0.0498 -4.93299,0.13183 -7.22461,0.18164 -2.18895,0.0479 -4.91298,0.15799 -6.25977,0.24023 v 0.65625 1.90039 1.4336 c 1e-5,0.57439 2e-5,1.14826 0,1.72265 4e-5,0.32842 -4e-5,0.65739 0,0.98633 1.67526,-0.17455 5.97746,-0.32825 13.81641,-0.48047 2.42447,-0.0498 5.86183,-0.13182 7.63867,-0.18164 6.4431,-0.16606 18.88137,-0.39849 28.03125,-0.49804 l 9.18164,-0.11524 c 10e-6,-0.306 2e-5,-0.61173 0,-0.91797 -3e-5,-0.37937 -1.8e-4,-0.7593 0,-1.13867 10e-6,-0.46199 -0.001,-0.92473 0,-1.38672 0.002,-0.41532 1.2e-4,-0.83081 -0.008,-1.24609 2.2e-4,-0.0584 0.007,-0.38142 0.0195,-0.66797 -0.0875,-0.4034 -0.14719,-0.81239 -0.125,-1.22656 -0.004,-0.1831 0.004,-0.36592 0.006,-0.54883 z" />
  </g>
</svg>
