<?xml version="1.0" encoding="UTF-8" standalone="no"?>
<!-- Created with Inkscape (http://www.inkscape.org/) -->

<svg
   xmlns:dc="http://purl.org/dc/elements/1.1/"
   xmlns:cc="http://creativecommons.org/ns#"
   xmlns:rdf="http://www.w3.org/1999/02/22-rdf-syntax-ns#"
   xmlns:svg="http://www.w3.org/2000/svg"
   xmlns="http://www.w3.org/2000/svg"
   xmlns:sodipodi="http://sodipodi.sourceforge.net/DTD/sodipodi-0.dtd"
   xmlns:inkscape="http://www.inkscape.org/namespaces/inkscape"
   width="465"
   height="720"
   viewBox="0 0 744.09448819 1052.3622047"
   id="svg2"
   version="1.1"
   inkscape:version="0.92.2 (30a58d1, 2017-08-07)"
   sodipodi:docname="n7-n9.svg">
  <defs
     id="defs4" />
  <sodipodi:namedview
     id="base"
     pagecolor="#ffffff"
     bordercolor="#666666"
     borderopacity="1.0"
     inkscape:pageopacity="0.0"
     inkscape:pageshadow="2"
     inkscape:zoom="3.7255689"
     inkscape:cx="229.66484"
     inkscape:cy="497.00321"
     inkscape:document-units="px"
     inkscape:current-layer="layer1"
     showgrid="true"
     inkscape:window-width="3200"
     inkscape:window-height="1674"
     inkscape:window-x="0"
     inkscape:window-y="60"
     inkscape:window-maximized="1"
     showguides="false">
    <inkscape:grid
       type="xygrid"
       id="grid3451" />
  </sodipodi:namedview>
  <metadata
     id="metadata7">
    <rdf:RDF>
      <cc:Work
         rdf:about="">
        <dc:format>image/svg+xml</dc:format>
        <dc:type
           rdf:resource="http://purl.org/dc/dcmitype/StillImage" />
        <dc:title />
      </cc:Work>
    </rdf:RDF>
  </metadata>
  <g
     inkscape:label="Layer 1"
     inkscape:groupmode="layer"
     id="layer1">
    <path
       id="path3398"
       transform="matrix(1.6002032,0,0,1.6002032,0,-49.89205)"
       style="fill:#008cba;stroke:none;stroke-width:0.62492061;fill-opacity:1"
       d="m 178.61133,130.15039 c -0.48137,0.11195 -0.91516,0.20122 -1.35352,0.25195 -0.51286,0.0927 -1.0993,0.10262 -1.63867,0.0781 -0.13112,0.098 -0.16172,0.11105 -0.48242,0.37305 -2.59357,0.84125 -2.06956,0.86215 -3.01172,0.78515 -0.39497,0.2304 -0.58021,0.35287 -0.67578,0.41797 0.009,0.0155 0.0121,0.0181 0.0215,0.0352 0.083,0.18266 0.43254,1.21163 0.74805,2.29101 0.31552,1.07939 0.73042,2.40903 0.89648,2.95703 1.89308,6.07778 3.48609,12.86857 4.41602,18.76368 0.13285,0.91332 0.29979,1.92667 0.34961,2.24218 0.0498,0.31551 0.1328,0.76361 0.16602,0.9961 0.0332,0.23248 0.0986,0.63176 0.14843,0.91406 0.0996,0.68084 0.69721,6.22595 0.89649,8.55078 0.49818,5.51318 0.71571,8.45326 1.09765,15.36133 0.0498,0.81369 0.1162,2.00862 0.16602,2.65625 0.0498,0.63102 0.16502,2.95645 0.24805,5.14844 0.16606,3.83597 0.59859,11.15877 0.74804,12.70312 0.48157,4.78251 1.52789,9.41675 3.17188,14.0332 1.36168,3.76955 4.08528,9.083 6.57617,12.83594 3.6367,5.44675 10.59287,14.76167 13.94727,18.66406 1.31166,1.51114 5.1986,6.21213 7.52343,9.10157 0.99636,1.22883 1.86034,2.2744 1.91016,2.32422 0.13284,0.11624 3.78478,4.8657 5.21289,6.80859 0.71405,0.96315 2.8241,4.13457 3.25586,4.89844 0.18266,0.31551 0.498,0.86319 0.69726,1.19531 1.17902,2.05913 2.57298,4.98273 3.58594,7.52344 1.1292,2.85622 1.64497,4.39968 3.6875,10.79297 1.21224,3.78615 2.25854,6.52685 3.20508,8.38671 0.36533,0.73067 0.74607,1.4941 0.8457,1.69336 0.0996,0.21588 0.23338,0.38282 0.31641,0.38282 0.0664,0 0.11719,0.0664 0.11719,0.16601 0,0.24909 1.56052,2.82196 2.42382,3.98438 2.05914,2.73997 4.63225,5.49758 6.79102,7.25781 1.07939,0.88011 2.97259,2.24021 3.23828,2.33984 0.13285,0.0498 0.3652,0.18357 0.49805,0.28321 0.24909,0.19926 1.29547,0.79665 2.90625,1.62695 2.77319,1.42811 6.77641,2.67369 10.29687,3.17187 2.34144,0.34873 3.45403,0.48145 3.73633,0.49805 0.0517,0.003 0.0955,0.10399 0.13477,0.29297 0.0204,-0.10224 0.0328,-0.19199 0.0586,-0.30469 0.0119,-0.0519 0.005,-0.15269 0.0586,-0.15039 0.054,0.002 0.0354,0.10306 0.0527,0.1543 6.2e-4,-0.80322 -0.014,-1.60707 -0.004,-2.41016 0.0234,-0.55193 0.0852,-1.03263 -0.0762,-1.58203 0.0149,-1.08394 -0.0406,-1.56876 0.20899,-2.25586 -0.009,-0.0161 -0.0562,-0.083 -0.0586,-0.0898 -0.0885,-0.25228 -0.15281,-0.51029 -0.20898,-0.77149 v 0.5586 l -0.44922,-0.0664 c -0.2657,-0.0332 -1.24585,-0.20016 -2.20899,-0.34961 -2.12556,-0.31551 -4.74967,-0.94616 -5.97851,-1.42773 -1.51114,-0.58121 -4.48207,-2.12575 -5.81055,-3.00586 -2.77319,-1.84326 -4.9828,-3.96993 -7.22461,-6.92578 -3.33779,-4.40058 -4.71526,-7.48877 -7.55468,-16.77149 -0.59782,-1.92628 -1.57807,-4.93246 -1.81055,-5.51367 -0.0996,-0.21588 -0.39934,-1.01249 -0.68164,-1.79297 -1.92629,-5.14784 -4.74915,-10.52708 -8.00391,-15.22656 -1.87647,-2.72337 -8.33471,-10.79565 -12.98437,-16.20898 -0.91333,-1.07939 -1.97647,-2.34071 -2.3418,-2.78907 -0.36533,-0.44836 -1.26348,-1.52711 -1.99414,-2.42383 -0.73066,-0.89672 -1.50971,-1.86027 -1.74219,-2.14257 -0.61442,-0.79709 -5.81332,-7.67165 -6.42773,-8.53516 -1.01297,-1.3949 -4.64824,-6.89127 -5.41211,-8.16992 -3.32119,-5.52978 -5.59743,-12.17303 -6.49414,-18.89844 -0.2657,-2.04253 -0.48138,-5.06492 -0.76368,-10.71094 -0.0996,-1.92628 -0.249,-4.79861 -0.33203,-6.39257 -0.083,-1.59418 -0.19823,-3.83662 -0.24804,-4.98243 -0.14946,-3.12191 -0.71497,-10.69354 -1.01367,-13.69922 -0.63103,-6.45971 -1.24599,-11.79036 -1.64454,-14.28125 -0.13285,-0.91332 -0.33103,-2.19124 -0.41406,-2.82226 -0.18266,-1.37829 -1.2294,-7.04259 -1.57812,-8.4707 -0.13285,-0.548 -0.3486,-1.52718 -0.49805,-2.15821 -0.5314,-2.37465 -2.49203,-9.78076 -3.08984,-11.60742 -0.0698,-0.20938 -0.11053,-0.38885 -0.14844,-0.5625 z m -5.29297,0.81445 c -0.40421,0.21685 -0.46763,0.26538 -0.73242,0.41407 0.13836,-0.0567 0.27469,-0.11891 0.41211,-0.17774 0.10645,-0.0787 0.43698,-0.29892 0.32031,-0.23633 z m -2.08398,0.61524 c -0.19326,-0.008 0.38468,0.0556 0.57812,0.0547 0.0235,-1.1e-4 0.047,-0.008 0.0703,-0.0117 -0.19871,-0.0149 -0.31663,-0.0284 -0.64843,-0.043 z" />
  </g>
</svg>
