<?xml version="1.0" encoding="UTF-8" standalone="no"?>
<!-- Created with Inkscape (http://www.inkscape.org/) -->

<svg
   xmlns:dc="http://purl.org/dc/elements/1.1/"
   xmlns:cc="http://creativecommons.org/ns#"
   xmlns:rdf="http://www.w3.org/1999/02/22-rdf-syntax-ns#"
   xmlns:svg="http://www.w3.org/2000/svg"
   xmlns="http://www.w3.org/2000/svg"
   xmlns:sodipodi="http://sodipodi.sourceforge.net/DTD/sodipodi-0.dtd"
   xmlns:inkscape="http://www.inkscape.org/namespaces/inkscape"
   width="465"
   height="720"
   viewBox="0 0 744.09448819 1052.3622047"
   id="svg2"
   version="1.1"
   inkscape:version="0.92.2 (30a58d1, 2017-08-07)"
   sodipodi:docname="n9-n10.svg">
  <defs
     id="defs4" />
  <sodipodi:namedview
     id="base"
     pagecolor="#ffffff"
     bordercolor="#666666"
     borderopacity="1.0"
     inkscape:pageopacity="0.0"
     inkscape:pageshadow="2"
     inkscape:zoom="5.8079698"
     inkscape:cx="141.2452"
     inkscape:cy="625.61988"
     inkscape:document-units="px"
     inkscape:current-layer="layer1"
     showgrid="true"
     inkscape:window-width="3200"
     inkscape:window-height="1674"
     inkscape:window-x="0"
     inkscape:window-y="60"
     inkscape:window-maximized="1"
     showguides="false">
    <inkscape:grid
       type="xygrid"
       id="grid3451" />
  </sodipodi:namedview>
  <metadata
     id="metadata7">
    <rdf:RDF>
      <cc:Work
         rdf:about="">
        <dc:format>image/svg+xml</dc:format>
        <dc:type
           rdf:resource="http://purl.org/dc/dcmitype/StillImage" />
        <dc:title />
      </cc:Work>
    </rdf:RDF>
  </metadata>
  <g
     inkscape:label="Layer 1"
     inkscape:groupmode="layer"
     id="layer1">
    <path
       id="path3398"
       style="fill:#008cba;stroke:none;stroke-width:0.62492061;fill-opacity:1"
       d="m 232.7793,35.677734 -0.0996,2.589844 c -0.0498,1.42811 -0.13182,4.20261 -0.18164,6.16211 -0.23249,9.149863 -0.53213,15.111451 -0.91407,18.349609 -0.48157,3.968818 -1.47738,9.581523 -2.05859,11.541015 -0.13285,0.415149 -0.39838,1.343558 -0.59766,2.074219 -0.68084,2.424467 -1.46244,4.684375 -3.15625,9.134766 -0.38193,0.996356 -0.81246,2.141501 -0.94531,2.523437 -0.13284,0.365331 -0.39839,0.864209 -0.59765,1.080078 -0.19927,0.199272 -0.84751,0.911944 -1.44532,1.542969 -0.59781,0.647632 -1.71073,1.876726 -2.47461,2.740235 -1.94289,2.191981 -7.27391,7.456604 -9.15039,9.050784 -0.86351,0.73065 -1.61033,1.36229 -1.66015,1.41211 -0.11624,0.13284 -4.4344,3.4696 -5.08203,3.91797 -3.03889,2.15869 -8.18643,5.33047 -12.27149,7.53906 -2.55732,1.3949 -9.29956,4.63274 -10.21289,4.89844 -0.23248,0.0664 -0.76355,0.29974 -1.19531,0.51562 -0.44836,0.23248 -0.81348,0.39747 -0.83008,0.38086 -0.0664,-0.0166 -0.46549,0.13464 -1.71094,0.59961 -0.6535,0.24936 -1.20966,0.45081 -1.78515,0.66211 0.49484,1.06435 0.97768,2.13501 1.44531,3.21094 0.43003,0.98941 0.83139,1.99229 1.25976,2.98242 0.12999,0.30043 0.1841,0.4131 0.29297,0.66211 0.36654,-0.15414 0.54768,-0.24413 1.11328,-0.46094 1.01296,-0.38194 2.14151,-0.84761 2.52344,-1.01367 0.39855,-0.16606 0.74706,-0.31446 0.79688,-0.31446 0.44836,0 9.69845,-4.43414 12.62109,-6.07812 1.01297,-0.548 2.27427,-1.26164 2.82227,-1.56055 0.54799,-0.2989 1.11226,-0.64938 1.26172,-0.76562 0.13277,-0.13285 0.29881,-0.23242 0.36523,-0.23242 0.083,0 2.49176,-1.44406 4.11914,-2.49024 3.38761,-2.17537 8.0868,-5.82813 12.23828,-9.53125 0.92993,-0.81369 6.45905,-6.32816 9.92969,-9.898436 2.05914,-2.108957 2.62389,-2.789774 3.13867,-3.802735 0.33211,-0.680843 0.71481,-1.344696 0.84766,-1.460937 0.2989,-0.298907 0.58088,-0.96241 1.22851,-2.789063 0.2823,-0.830297 0.58111,-1.643513 0.66406,-1.826171 0.33794,-0.748282 1.31237,-3.6752 2.07032,-6.126954 0.12135,-0.773172 0.27309,-1.628717 0.46875,-2.605468 0.56352,-2.813161 1.30029,-5.473525 1.91406,-7.507813 0.40364,-2.30156 0.77522,-4.77456 1.10937,-7.507812 0.0175,-0.128435 0.0583,-0.61852 0.0879,-0.904297 0.0172,-0.849521 0.0591,-1.461526 0.21679,-2.261719 0.0944,-1.010611 0.20781,-2.253912 0.27735,-3.060547 0.0327,-0.367456 0.1008,-1.612353 0.15234,-2.4375 0.0127,-0.632834 0.0113,-1.26585 0.0273,-1.898437 0.011,-0.43542 0.0256,-0.871187 0.0352,-1.306641 0.001,-0.0427 -3.7e-4,-0.169559 -0.004,-0.126953 -0.007,0.10125 -0.005,0.203228 -0.008,0.304687 -0.0565,-2.973667 0.15648,-5.847559 0.56055,-8.667968 0.0496,-1.022816 0.11045,-2.375133 0.16601,-3.486328 l 0.11719,-2.423829 -1.14648,-0.09961 c -0.74726,-0.06642 -1.29485,-0.233342 -1.59375,-0.449219 -0.31552,-0.232483 -0.71378,-0.332031 -1.29492,-0.332031 -0.46497,0 -0.97946,-0.06541 -1.12891,-0.148438 -0.14946,-0.08303 -0.74888,-0.182604 -1.29688,-0.232421 z"
       transform="matrix(1.6002032,0,0,1.6002032,0,-49.89205)" />
  </g>
</svg>
