<?xml version="1.0" encoding="UTF-8" standalone="no"?>
<!-- Created with Inkscape (http://www.inkscape.org/) -->

<svg
   xmlns:dc="http://purl.org/dc/elements/1.1/"
   xmlns:cc="http://creativecommons.org/ns#"
   xmlns:rdf="http://www.w3.org/1999/02/22-rdf-syntax-ns#"
   xmlns:svg="http://www.w3.org/2000/svg"
   xmlns="http://www.w3.org/2000/svg"
   xmlns:sodipodi="http://sodipodi.sourceforge.net/DTD/sodipodi-0.dtd"
   xmlns:inkscape="http://www.inkscape.org/namespaces/inkscape"
   width="465"
   height="720"
   viewBox="0 0 744.09448819 1052.3622047"
   id="svg2"
   version="1.1"
   inkscape:version="0.92.2 (30a58d1, 2017-08-07)"
   sodipodi:docname="Map2.0 (copy).svg">
  <defs
     id="defs4" />
  <sodipodi:namedview
     id="base"
     pagecolor="#ffffff"
     bordercolor="#666666"
     borderopacity="1.0"
     inkscape:pageopacity="0.0"
     inkscape:pageshadow="2"
     inkscape:zoom="0.7"
     inkscape:cx="647.40432"
     inkscape:cy="451.10235"
     inkscape:document-units="px"
     inkscape:current-layer="layer1"
     showgrid="true"
     inkscape:window-width="1920"
     inkscape:window-height="1017"
     inkscape:window-x="0"
     inkscape:window-y="56"
     inkscape:window-maximized="1"
     showguides="false">
    <inkscape:grid
       type="xygrid"
       id="grid3451" />
  </sodipodi:namedview>
  <metadata
     id="metadata7">
    <rdf:RDF>
      <cc:Work
         rdf:about="">
        <dc:format>image/svg+xml</dc:format>
        <dc:type
           rdf:resource="http://purl.org/dc/dcmitype/StillImage" />
        <dc:title />
      </cc:Work>
    </rdf:RDF>
  </metadata>
  <g
     inkscape:label="Layer 1"
     inkscape:groupmode="layer"
     id="layer1">
    <path
       id="path3398"
       transform="matrix(1.6002032,0,0,1.6002032,0,-49.89205)"
       style="fill:#ff0000;stroke:none;stroke-width:0.62492061"
       d="m 270.70117,380.71289 c -1.37117,-0.001 -2.74218,0.002 -4.11328,0.002 0.039,2.43648 0.0821,4.78912 0.11719,9.36719 0.14945,19.3127 0.249,30.00586 0.33203,33.70899 0.0498,1.90968 0.083,8.38709 0.0996,14.36523 0.0166,5.97813 0.084,13.08523 0.15039,15.77539 0.0664,2.69017 0.166,7.47182 0.23242,10.62695 0.11624,6.7088 0.23142,12.02332 0.34766,16.19141 0.16606,5.36371 0.21639,28.14661 0.084,31.38477 -0.19927,5.06481 -0.33298,18.7141 -0.41601,47.49218 -0.0498,14.79589 -0.13183,39.82201 -0.18164,55.63086 -0.16606,42.76028 -0.18342,61.40913 -0.0508,61.69141 0.0664,0.13286 0.16698,0.38179 0.2168,0.56445 0.083,0.2491 0.14839,0.26587 0.34766,0.0996 0.21588,-0.18266 0.21564,-0.23241 -0.0332,-0.43164 -0.24909,-0.18266 0.18388,-0.2158 2.82422,-0.23242 2.98907,0 3.10547,0.0168 3.10547,0.33203 0,0.58124 0.2988,0.3654 0.39844,-0.29883 0.0498,-0.33214 -0.0176,-4.05263 -0.15039,-8.2539 -0.19927,-6.27708 -0.21584,-15.79179 -0.16602,-53.63672 0.11624,-71.43873 0.24991,-92.62896 0.58203,-103.53907 0.18267,-5.56298 0.23237,-20.30822 0.082,-25.40625 -0.0498,-1.77683 -0.16599,-8.20347 -0.26563,-14.28125 -0.083,-6.07777 -0.19921,-11.30753 -0.23242,-11.62304 -0.0332,-0.31551 -0.14939,-9.93156 -0.23242,-21.33985 -0.0996,-11.42488 -0.21581,-24.34454 -0.26563,-28.72851 -0.0498,-4.38397 -0.16599,-15.85879 -0.26562,-25.49024 -0.0155,-1.79936 -0.026,-2.23033 -0.043,-3.9707 -0.83463,-2.9e-4 -1.66939,4.8e-4 -2.50391,0 z" />
  </g>
</svg>
