<?xml version="1.0" encoding="UTF-8" standalone="no"?>
<!-- Created with Inkscape (http://www.inkscape.org/) -->

<svg
   xmlns:dc="http://purl.org/dc/elements/1.1/"
   xmlns:cc="http://creativecommons.org/ns#"
   xmlns:rdf="http://www.w3.org/1999/02/22-rdf-syntax-ns#"
   xmlns:svg="http://www.w3.org/2000/svg"
   xmlns="http://www.w3.org/2000/svg"
   xmlns:sodipodi="http://sodipodi.sourceforge.net/DTD/sodipodi-0.dtd"
   xmlns:inkscape="http://www.inkscape.org/namespaces/inkscape"
   width="372"
   height="576"
   viewBox="0 0 744.09448819 1052.3622047"
   id="svg2"
   version="1.1"
   inkscape:version="0.91 r13725"
   sodipodi:docname="Map2.0.svg">
  <defs
     id="defs4" />
  <sodipodi:namedview
     id="base"
     pagecolor="#ffffff"
     bordercolor="#666666"
     borderopacity="1.0"
     inkscape:pageopacity="0.0"
     inkscape:pageshadow="2"
     inkscape:zoom="0.7"
     inkscape:cx="1250.4273"
     inkscape:cy="451.10235"
     inkscape:document-units="px"
     inkscape:current-layer="layer1"
     showgrid="true"
     inkscape:window-width="1920"
     inkscape:window-height="1017"
     inkscape:window-x="0"
     inkscape:window-y="56"
     inkscape:window-maximized="1"
     showguides="false">
    <inkscape:grid
       type="xygrid"
       id="grid3451" />
  </sodipodi:namedview>
  <metadata
     id="metadata7">
    <rdf:RDF>
      <cc:Work
         rdf:about="">
        <dc:format>image/svg+xml</dc:format>
        <dc:type
           rdf:resource="http://purl.org/dc/dcmitype/StillImage" />
        <dc:title></dc:title>
      </cc:Work>
    </rdf:RDF>
  </metadata>
  <g
     inkscape:label="Layer 1"
     inkscape:groupmode="layer"
     id="layer1">
    <path
       style="fill:#000000;stroke:none"
       inkscape:connector-curvature="0"
       d="m 372.33533,11.344793 c -0.0797,2.285266 -0.21258,6.722936 -0.2923,9.858534 -0.37202,14.641652 -0.85033,24.181312 -1.46151,29.363022 -0.77061,6.350916 -2.36498,15.332546 -3.29503,18.468144 -0.21259,0.664322 -0.63775,2.152403 -0.95663,3.321609 -1.08949,3.879639 -2.33841,7.493549 -5.04884,14.615079 -0.61118,1.594372 -1.30207,3.4279 -1.51466,4.039076 -0.21258,0.584603 -0.63775,1.381789 -0.95662,1.727236 -0.31887,0.318875 -1.35522,1.461508 -2.31184,2.471277 -0.95662,1.036342 -2.73701,3.002735 -3.95936,4.384524 -3.10902,3.507616 -11.63891,11.931216 -14.64165,14.482216 -1.38179,1.1692 -2.57757,2.17897 -2.65729,2.25869 -0.18601,0.21258 -7.09495,5.55373 -8.13129,6.2712 -4.86284,3.45447 -13.10043,8.52989 -19.63735,12.06408 -4.09223,2.23212 -14.88081,7.41383 -16.34232,7.839 -0.37202,0.10629 -1.22235,0.47831 -1.91325,0.82376 -0.71746,0.37202 -1.30207,0.63775 -1.32864,0.61117 -0.10629,-0.0266 -0.74404,0.21259 -2.73701,0.95663 -4.03907,1.54122 -7.59984,2.81672 -9.22078,3.32161 -1.00977,0.2923 -2.551,0.77061 -3.45447,1.03634 -1.48809,0.45174 -9.30051,2.33841 -10.70887,2.57757 -0.2923,0.0531 -0.82376,0.15943 -1.19578,0.23915 -7.94529,1.51466 -15.04024,2.2587 -25.11136,2.65729 -8.50332,0.31887 -11.5592,0.47831 -13.28644,0.66432 -2.737,0.2923 -6.8558,0.31888 -7.28096,0.0266 -0.21259,-0.13286 -0.61118,-0.10629 -1.03635,0.13287 -0.53145,0.26573 -1.80695,0.2923 -5.8726,0.15944 -10.62915,-0.37202 -32.4189,-0.18601 -62.87141,0.50488 -15.51856,0.37202 -67.627952,0.45174 -87.026147,0.13286 -7.387258,-0.13286 -15.545129,-0.26572 -18.14927,-0.2923 l -4.729971,-0.0531 0.05315,5.288 c 0.02657,2.89644 0.159437,5.34114 0.265729,5.42086 0.132864,0.0797 0.239155,0.47832 0.239155,0.90348 0,0.42517 0.132865,0.85033 0.265729,0.93005 0.159437,0.10629 3.481046,0.15944 7.387258,0.13287 3.906212,0 22.640085,-0.0797 41.639687,-0.13287 18.99961,-0.0531 38.18522,-0.15944 42.64946,-0.23915 4.46424,-0.0797 11.82493,-0.21259 16.34231,-0.29231 4.54397,-0.0797 9.67253,-0.21258 11.42634,-0.26572 1.75381,-0.0797 11.93122,-0.26573 22.58694,-0.42517 15.14653,-0.23916 20.62055,-0.23916 24.9785,0 3.08245,0.18601 5.66002,0.39859 5.73974,0.50488 0.37202,0.37202 0.71746,6.48378 1.43493,23.83587 0.61118,15.62485 0.93005,31.35599 1.06292,54.47438 0.18601,30.31965 0.63774,76.45015 0.79718,80.25007 0.0532,1.75381 0.18601,6.40406 0.26573,10.36342 0.0797,3.93278 0.18601,8.95506 0.26573,11.1606 0.13286,4.51739 0.34545,12.67526 0.53146,22.05549 0.23915,12.01093 0.66432,29.23015 0.79718,33.34895 0.15944,4.72997 0.31888,14.61508 0.6909,41.45368 0.13286,10.44313 0.37202,25.27079 0.50488,32.95035 0.26573,13.28644 0.26573,35.89995 0.0532,54.3681 l -0.0797,8.52989 -1.38179,0.15943 c -0.77061,0.1063 -5.39429,0.29231 -10.2837,0.45174 -9.83196,0.2923 -19.34505,0.87691 -26.04141,1.59438 -4.19852,0.42516 -6.05862,0.39859 -9.32708,-0.13287 -1.19578,-0.21258 -1.30207,0.0531 -1.30207,3.34818 0,2.551 -0.47831,9.19422 -0.71747,9.80539 -0.0797,0.21258 -0.18601,1.11606 -0.23915,1.99297 -0.13287,2.55099 -0.13287,19.37162 0.0266,21.33801 0.0531,0.9832 0.23915,4.75655 0.39859,8.4236 0.15944,3.64048 0.39859,9.08792 0.53146,12.09066 0.26573,5.39429 0.39859,8.21101 0.66432,14.61508 0.15944,3.64048 0.53146,12.06408 0.93005,20.99256 0.13287,3.1356 0.42517,11.21375 0.66432,17.93669 0.21259,6.72294 0.50489,14.37592 0.63775,17.00664 0.13287,2.63071 0.21258,5.02227 0.21258,5.31457 0,0.82376 0.34545,10.54943 0.47832,13.55216 0.0797,1.46151 0.18601,4.09223 0.26572,5.84604 0.31888,8.18444 0.42517,10.52285 0.53146,12.62211 0.0531,1.24892 0.18601,4.03908 0.26573,6.24462 0.15944,4.7034 0.31888,8.47675 0.66432,17.80383 0.58461,15.19968 0.63775,16.8472 0.93005,23.38412 0.0797,1.75381 0.18601,4.80969 0.26573,6.77608 0.0532,1.9664 0.18601,5.79289 0.2923,8.50332 0.0797,2.71044 0.21259,5.44744 0.26573,6.11176 0.0266,0.66432 0.15944,3.32161 0.26573,5.89918 l 0.18601,4.72997 -0.90348,0 c -0.50488,0 -3.64048,0.10629 -7.01523,0.21258 -10.04455,0.31888 -82.42905,0.0531 -87.026157,-0.31887 -0.664322,-0.0531 -4.012503,-0.13287 -7.440403,-0.18601 l -6.244625,-0.0797 -0.07972,0.71747 c -0.05315,0.37202 -0.345448,0.93005 -0.690895,1.1692 -0.55803,0.45174 -0.903478,1.78039 -1.381789,5.36772 -0.07972,0.50489 -0.239156,1.43494 -0.398593,2.09926 -0.132865,0.66432 -0.159438,1.30207 -0.05315,1.40836 0.478312,0.42517 90.321182,0.90348 102.119542,0.53146 6.96209,-0.21258 8.95505,-0.21258 9.22078,0.0532 0.18601,0.21258 0.37202,1.8601 0.47831,4.70339 0.0797,2.41814 0.21259,5.87261 0.26573,7.70614 0.0797,1.83352 0.23916,6.61664 0.3986,10.62914 0.13286,4.01251 0.31887,8.55647 0.39859,10.09769 0.0531,1.54123 0.18601,7.57327 0.26573,13.4193 0.0797,5.84604 0.18601,11.39977 0.26573,12.35639 0.0797,0.95662 0.18601,5.60687 0.26572,10.36342 0.0797,4.75654 0.21259,11.21375 0.26573,14.34935 0.0797,3.1356 0.18601,11.26689 0.26573,18.06955 0.34545,31.8343 0.45174,41.18795 0.55803,42.78232 0.18601,2.81672 0.31888,64.33283 0.13287,68.90343 -0.0797,2.3384 -0.0797,4.2782 0,4.3314 0.10629,0.053 0.13286,0.4251 0.0797,0.8237 -0.0531,0.558 -0.15944,15.9703 -0.1063,17.8038 0,0.1595 0.21259,0.3189 0.47832,0.3189 2.68386,-0.027 9.3005,0.4252 9.5928,0.6643 0.2923,0.2126 0.34545,0.2126 0.18601,-0.027 -0.10629,-0.2126 -0.0266,-0.3455 0.21258,-0.3455 0.26573,0 0.42517,-0.2391 0.42517,-0.6112 0.0266,-1.9664 -0.0531,-13.1004 -0.18601,-27.6092 -0.13286,-14.00383 -0.10629,-16.74084 0.21258,-17.13943 0.21259,-0.23916 0.23916,-0.37202 0.0797,-0.26573 -0.21258,0.13286 -0.26573,-2.31184 -0.18601,-9.06135 0.13287,-11.82493 0.10629,-20.5674 -0.0531,-24.76591 -0.0531,-1.83353 -0.18601,-7.38726 -0.26573,-12.35639 -0.0797,-4.96912 -0.18601,-11.61234 -0.26573,-14.74794 -0.0797,-3.1356 -0.21258,-13.65846 -0.2923,-23.38413 -0.0797,-9.69909 -0.18601,-17.7241 -0.23916,-17.80382 -0.0531,-0.10629 -0.18601,-8.98163 -0.2923,-19.74364 -0.13286,-15.25283 -0.10629,-19.66393 0.13286,-19.95623 0.18601,-0.21258 0.26573,-0.61117 0.18601,-0.8769 -0.0797,-0.26573 -0.18601,-2.89644 -0.26572,-5.87261 -0.0797,-2.94958 -0.18601,-5.47401 -0.26573,-5.5803 -0.18601,-0.31887 -0.55803,-7.20125 -0.95663,-18.65415 -0.15943,-4.17194 -0.39859,-10.12427 -0.53145,-13.25987 -0.13287,-3.13559 -0.21259,-5.73974 -0.15944,-5.79288 0.0266,-0.0531 6.51035,-0.26573 14.40249,-0.47831 7.86557,-0.21259 15.41227,-0.45174 16.71434,-0.53146 1.32864,-0.0531 5.92575,-0.18601 10.23055,-0.26573 4.30481,-0.0797 9.4068,-0.18601 11.29347,-0.26573 1.91325,-0.0797 6.51036,-0.18601 10.23056,-0.26573 3.7202,-0.0797 9.64595,-0.18601 13.15357,-0.26573 26.86517,-0.5846 34.86361,-0.69089 51.01991,-0.63774 14.08362,0.0531 18.415,0.13286 18.73387,0.39859 0.26573,0.21258 0.87691,0.26573 1.78039,0.18601 1.32864,-0.13287 1.40836,-0.18601 1.54122,-0.9832 0.0797,-0.45174 0.13287,-1.06291 0.10629,-1.35521 -0.0266,-0.29231 0.0532,-5.50059 0.15944,-11.5592 0.18601,-9.61938 -0.0797,-33.93356 -0.53146,-51.8171 -0.0797,-2.8433 -0.18601,-8.58304 -0.26572,-12.75498 -0.0797,-4.17194 -0.21259,-9.61937 -0.26573,-12.09065 -0.0797,-2.49785 -0.18601,-8.05158 -0.26573,-12.35639 -0.15944,-8.95505 -0.31888,-16.02344 -0.66432,-31.48885 -0.13287,-6.00547 -0.37202,-17.35208 -0.53146,-25.24422 -0.50489,-27.68893 -0.79719,-42.30401 -0.93005,-47.16685 -0.0532,-2.71043 -0.18601,-9.16764 -0.2923,-14.34935 -0.0797,-5.18171 -0.18601,-9.85853 -0.23916,-10.36342 -0.0531,-0.71746 -0.18601,-14.26963 -0.13286,-15.83743 0,-0.39859 7.22782,-0.71747 23.64985,-1.03634 3.87964,-0.0797 9.38022,-0.21258 12.22352,-0.2923 10.31027,-0.26573 30.21335,-0.63775 44.85501,-0.79719 l 14.93395,-0.18601 0,2.49785 c 0.0266,1.38179 0.0797,3.56077 0.13286,4.88941 0.0531,1.30207 0.18601,10.8683 0.26573,21.2583 0.23916,30.90424 0.39859,48.01717 0.53146,53.94292 0.0797,3.05588 0.13286,13.4193 0.15944,22.98554 0.0266,9.56623 0.13286,20.93942 0.23915,25.24422 0.10629,4.30481 0.26573,11.95779 0.37202,17.00664 0.18601,10.73544 0.37202,19.23876 0.55803,25.90855 0.26573,8.58303 0.34545,45.04101 0.13287,50.22272 -0.31888,8.10473 -0.53146,29.94763 -0.66433,75.99841 -0.0797,23.67643 -0.21258,63.72174 -0.2923,89.01911 -0.26573,68.42513 -0.2923,98.26643 -0.0797,98.71813 0.1063,0.2126 0.26573,0.6112 0.34545,0.9035 0.13287,0.3986 0.23916,0.4252 0.55803,0.1595 0.34545,-0.2923 0.34545,-0.3721 -0.0531,-0.6909 -0.3986,-0.2923 0.2923,-0.3455 4.51738,-0.3721 4.78312,0 4.96913,0.027 4.96913,0.5315 0,0.9301 0.47831,0.5846 0.63775,-0.4783 0.0797,-0.5315 -0.0266,-6.4838 -0.23916,-13.2067 -0.31887,-10.0446 -0.34544,-25.27078 -0.26572,-85.83036 0.18601,-114.31648 0.39859,-148.22346 0.93005,-165.68184 0.2923,-8.90191 0.37202,-32.49862 0.13286,-40.65649 -0.0797,-2.8433 -0.26573,-13.127 -0.42517,-22.85267 -0.13286,-9.72567 -0.31887,-18.09612 -0.37202,-18.60101 -0.0531,-0.50488 -0.23915,-15.89057 -0.37202,-34.14614 -0.15943,-18.28213 -0.34544,-38.95582 -0.42516,-45.97106 -0.0797,-7.01524 -0.26573,-25.37709 -0.42517,-40.78936 -0.13286,-15.41226 -0.31887,-30.71823 -0.37202,-34.01327 -0.0797,-3.29504 -0.15944,-8.84877 -0.18601,-12.35638 -0.0266,-3.50762 -0.13286,-8.8222 -0.23915,-11.82493 -0.1063,-3.00274 -0.31888,-10.60258 -0.47832,-16.87377 -0.15943,-6.29777 -0.34544,-14.21649 -0.45173,-17.61782 l -0.13287,-6.1649 16.68776,-0.0266 c 9.16764,0 18.17585,-0.0531 20.00937,-0.10629 1.83353,-0.0266 14.53536,-0.15943 28.22039,-0.26573 l 24.92535,-0.18601 -0.13286,3.40133 c -0.0532,1.88668 -0.18601,12.70183 -0.26573,24.02188 -0.15944,23.75614 -0.31887,45.81162 -0.55803,74.80263 -0.10629,11.24032 -0.15944,45.91791 -0.10629,77.06132 0.10629,72.72994 0.10629,90.58691 0,159.30435 -0.0266,31.19655 0,63.6686 0.10629,72.14535 0.39859,37.016 0.63775,156.08897 0.31888,156.62047 -0.0797,0.1063 -0.0531,0.3189 0.0531,0.4783 0.13287,0.2126 1.16921,0.186 3.64048,-0.08 1.91325,-0.186 4.38453,-0.4252 5.52716,-0.5315 l 2.07269,-0.1594 -0.13287,-6.1383 c -0.31887,-12.0641 -0.61117,-51.87026 -0.8769,-119.17933 l -0.15944,-39.64673 16.31574,0 c 35.39506,0 123.48413,-0.26573 133.87412,-0.42516 10.84173,-0.13287 12.32981,-0.26573 11.74521,-1.03634 -0.13287,-0.13287 -0.31888,-2.31184 -0.42517,-4.83627 -0.15943,-4.22508 -0.13286,-4.57053 0.31888,-4.83626 0.50488,-0.31887 -7.89214,-0.23916 -19.9828,0.15944 -6.74951,0.23915 -127.20433,0.15943 -127.81551,-0.0797 -0.21258,-0.10629 -3.40132,-0.10629 -7.04181,-0.0266 -3.64048,0.0797 -6.69636,0.0531 -6.77608,-0.0797 -0.31887,-0.53146 -0.37202,-5.34115 -0.31887,-41.71941 0.0531,-62.60568 0.0266,-109.87882 -0.13287,-159.43722 -0.0797,-25.50995 -0.0531,-55.59044 0.0531,-66.83077 0.10629,-11.26689 0.26573,-32.23289 0.37202,-46.63538 0.34545,-50.64789 0.66432,-76.07813 0.9832,-76.29071 0.15943,-0.0797 4.06564,-0.18601 8.7159,-0.21259 10.23055,-0.0531 34.30557,-0.45173 47.85774,-0.82375 5.47401,-0.15944 18.22898,-0.23916 28.3001,-0.23916 12.1438,0.0266 22.74638,-0.10629 31.35599,-0.37202 7.17467,-0.23916 17.27236,-0.5846 22.45407,-0.74404 5.18171,-0.15944 10.86831,-0.37202 12.62212,-0.45174 l 3.16217,-0.18601 0.0797,-1.5678 c 0.0266,-0.8769 -0.0797,-1.75381 -0.21259,-1.93982 -0.18601,-0.18601 -0.23915,-0.85033 -0.13286,-1.59437 0.0797,-0.6909 0.21258,-2.39156 0.2923,-3.74678 0.13287,-1.96639 0.0797,-2.4447 -0.21258,-2.4447 -0.18601,0 -3.74678,0.15944 -7.91872,0.37202 -4.14536,0.21258 -9.69909,0.45174 -12.32981,0.55803 -4.14537,0.13286 -13.76474,0.53146 -26.17428,1.06292 -1.96639,0.0797 -13.87103,0.26572 -26.44,0.39859 -12.56897,0.13286 -26.5463,0.37202 -31.09026,0.50488 -8.02501,0.23916 -16.23602,0.42517 -32.4189,0.6909 -4.38452,0.0797 -10.20398,0.21258 -12.94099,0.2923 l -4.9957,0.15944 0,-3.1356 c 0,-1.75381 0.10629,-7.28097 0.26573,-12.32981 0.13287,-5.04885 0.2923,-23.64986 0.37202,-41.32082 0.37202,-76.87531 0.42517,-90.37433 0.55803,-99.91399 0.0797,-5.55373 0.18601,-16.79405 0.26573,-24.9785 0.13286,-14.34935 0.37202,-35.95309 0.93005,-85.03318 0.13287,-12.7284 0.31888,-31.48885 0.39859,-41.71941 0.0797,-10.23055 0.18601,-20.88627 0.26573,-23.64985 0.0797,-2.79015 0.18601,-12.51582 0.26573,-21.65689 0.13287,-15.545128 0.18601,-19.849933 0.53146,-36.803424 0.0797,-3.667056 0.26573,-12.568968 0.39859,-19.796788 0.15944,-7.227821 0.31888,-14.243059 0.3986,-15.545129 0.0531,-1.328644 0.18601,-5.288001 0.2923,-8.822193 l 0.18601,-6.404062 -1.70067,-0.106291 c -2.79015,-0.18601 -9.80539,-0.05315 -10.07111,0.212583 -0.29231,0.292301 -0.47832,17.272365 -0.66433,59.895249 -0.0797,17.325511 -0.21258,34.358725 -0.26573,37.866335 -0.0797,3.50762 -0.23915,20.6737 -0.39859,38.13207 -0.13286,17.45838 -0.31887,34.81046 -0.39859,38.53066 -0.0797,3.72021 -0.18601,16.39547 -0.26573,28.16725 -0.0797,11.77178 -0.18601,24.02187 -0.26573,27.23719 -0.0797,3.21532 -0.18601,17.91011 -0.26573,32.68463 -0.0797,14.74794 -0.18601,30.95739 -0.26573,36.00624 -0.0797,5.04884 -0.18601,30.50565 -0.26572,56.60021 -0.13287,45.12073 -0.23916,61.33018 -0.53146,67.89368 -0.0797,1.59438 -0.18601,6.2712 -0.2923,10.36342 -0.0797,4.09222 -0.15944,7.46698 -0.18601,7.46698 -0.18601,0.13286 -28.51269,0.39859 -56.28134,0.55803 l -33.37553,0.15944 -0.15943,-1.9664 c -0.71747,-8.50331 -0.77062,-86.12267 -0.15944,-162.73225 0.0797,-12.56897 0.23915,-37.09573 0.34545,-54.47439 0.0797,-17.40523 0.21258,-35.87337 0.2923,-41.05508 0.0797,-5.18171 0.18601,-22.53379 0.26573,-38.53066 0.0797,-15.99687 0.18601,-35.02304 0.26572,-42.25086 0.0797,-7.22782 0.18601,-21.284873 0.26573,-31.223126 0.0797,-9.938254 0.18601,-20.593975 0.26573,-23.649855 0.0797,-3.082453 0.18601,-14.90738 0.2923,-26.307141 l 0.15944,-20.726839 -5.95232,0.05315 -5.92575,0.05315 0.13286,22.799522 c 0.21259,37.228591 0,112.615829 -0.39859,135.601359 -0.13287,7.4404 -0.26573,37.94606 -0.55803,117.45208 -0.10629,24.47362 -0.21258,44.80186 -0.26573,45.17388 -0.21258,1.83353 -0.10629,101.03006 0.13286,108.41731 0.15944,4.59711 0.29231,9.35365 0.29231,10.54943 l 0,2.17898 -0.71747,-0.10629 c -0.42517,-0.0532 -1.99297,-0.31888 -3.53419,-0.55803 -3.40133,-0.50489 -7.59984,-1.51466 -9.56624,-2.28527 -2.41813,-0.93005 -7.17467,-3.40133 -9.3005,-4.80969 -4.43767,-2.94959 -7.97186,-6.35092 -11.5592,-11.08089 -5.34115,-7.04181 -7.54669,-11.98436 -12.09066,-26.8386 -0.95662,-3.08245 -2.52442,-7.89214 -2.89644,-8.82219 -0.15944,-0.34545 -0.63775,-1.62094 -1.08949,-2.86987 -3.08245,-8.23759 -7.59984,-16.8472 -12.80812,-24.36732 -3.00273,-4.35795 -13.33958,-17.27237 -20.77998,-25.93512 -1.46151,-1.72724 -3.16217,-3.74678 -3.74678,-4.46424 -0.5846,-0.71747 -2.01954,-2.44471 -3.18874,-3.87964 -1.16921,-1.43494 -2.41813,-2.97616 -2.79015,-3.4279 -0.9832,-1.2755 -9.30051,-12.27667 -10.2837,-13.65846 -1.62095,-2.23212 -7.44041,-11.02774 -8.66276,-13.07385 -5.31457,-8.84877 -8.95506,-19.47791 -10.38999,-30.23993 -0.42517,-3.26846 -0.77062,-8.10472 -1.22235,-17.1395 -0.15944,-3.08245 -0.3986,-7.67956 -0.53146,-10.23055 -0.13287,-2.551 -0.31888,-6.13834 -0.39859,-7.97186 -0.23916,-4.9957 -1.14264,-17.11293 -1.62095,-21.92262 -1.00977,-10.33685 -1.99296,-18.86674 -2.63071,-22.85267 -0.21259,-1.46151 -0.53146,-3.50762 -0.66433,-4.51739 -0.2923,-2.20555 -1.96639,-11.26689 -2.52442,-13.55216 -0.21258,-0.87691 -0.55803,-2.4447 -0.79718,-3.45447 -0.85034,-3.79992 -3.98593,-15.65142 -4.94256,-18.57444 -0.2923,-0.8769 -0.42516,-1.67409 -0.31887,-1.78038 0.13286,-0.10629 1.54122,-0.6909 3.1356,-1.30207 1.62094,-0.61118 3.4279,-1.35522 4.03907,-1.62095 0.63775,-0.26573 1.19578,-0.50488 1.2755,-0.50488 0.71747,0 15.51856,-7.09496 20.19538,-9.72567 1.62095,-0.87691 3.64048,-2.01954 4.51739,-2.49785 0.8769,-0.47831 1.78038,-1.03634 2.01954,-1.22235 0.21258,-0.21259 0.47831,-0.37203 0.5846,-0.37203 0.13286,0 3.98593,-2.31183 6.59007,-3.98593 5.42087,-3.48104 12.94099,-9.32707 19.58421,-15.25282 1.48808,-1.30207 10.33684,-10.12427 15.89057,-15.83743 3.29504,-3.37476 4.19852,-4.46425 5.02228,-6.085193 0.53145,-1.089487 1.14263,-2.152402 1.35521,-2.338412 0.47831,-0.478312 0.93005,-1.541227 1.96639,-4.464242 0.45174,-1.328644 0.93006,-2.630714 1.06292,-2.923016 0.74404,-1.647518 3.4279,-9.911681 4.46424,-13.685028 1.78038,-6.590072 3.24189,-14.53536 4.43767,-24.314176 0.0797,-0.584603 0.26573,-2.444704 0.39859,-4.118795 0.15944,-1.674091 0.3986,-4.304805 0.53146,-5.846031 0.21258,-2.391559 0.71747,-11.585772 1.16921,-21.524025 0.0797,-1.541227 0.21258,-4.543961 0.31887,-6.66979 l 0.18601,-3.8796395 -1.83353,-0.1594372 c -1.19577,-0.1062915 -2.07268,-0.3720202 -2.55099,-0.7174675 -0.50489,-0.3720202 -1.14263,-0.5314574 -2.07269,-0.5314574 -0.74404,0 -1.56779,-0.1062915 -1.80695,-0.2391558 -0.23916,-0.1328644 -1.19578,-0.2923016 -2.07268,-0.3720202 l -1.64752,-0.1062915 -0.15944,4.1453681 z m -97.9476,150.136717 c 0.13287,0.2923 0.6909,1.93982 1.19578,3.66705 0.50489,1.72724 1.16921,3.85307 1.43494,4.72998 3.0293,9.72567 5.5803,20.59397 7.06838,30.02734 0.21258,1.46151 0.47831,3.08245 0.55803,3.58734 0.0797,0.50488 0.21258,1.22235 0.26573,1.59437 0.0531,0.37202 0.15944,1.00977 0.23915,1.46151 0.15944,1.08948 1.11606,9.96482 1.43494,13.68502 0.79719,8.8222 1.14263,13.52559 1.75381,24.57991 0.0797,1.30207 0.18601,3.21532 0.26573,4.25166 0.0797,1.00977 0.26573,4.72997 0.39859,8.23759 0.26573,6.13833 0.95662,17.85697 1.19578,20.32824 0.77061,7.65299 2.4447,15.06682 5.07542,22.45408 2.17897,6.03204 6.53692,14.53536 10.52285,20.54083 5.81946,8.7159 16.9535,23.62328 22.32122,29.8679 2.09925,2.41813 8.3173,9.93826 12.03751,14.56194 1.59437,1.96639 2.97616,3.64048 3.05588,3.7202 0.21258,0.18601 6.05861,7.78585 8.34388,10.89487 1.14263,1.54123 4.51738,6.61665 5.20828,7.839 0.2923,0.50488 0.79719,1.38179 1.11606,1.91325 1.88667,3.29503 4.11879,7.97186 5.73974,12.03751 1.80695,4.57053 2.63071,7.04181 5.89918,17.27236 1.93982,6.05862 3.61391,10.44314 5.12856,13.4193 0.5846,1.16921 1.19578,2.39156 1.35522,2.71043 0.15943,0.34545 0.37202,0.61118 0.50488,0.61118 0.10629,0 0.18601,0.10629 0.18601,0.26573 0,0.39859 2.49785,4.51739 3.87964,6.37749 3.29504,4.38452 7.41383,8.79562 10.8683,11.61234 1.72724,1.40836 4.75655,3.58734 5.18171,3.74678 0.21259,0.0797 0.58461,0.2923 0.79719,0.45174 0.39859,0.31887 2.07268,1.27549 4.65025,2.60414 4.43767,2.28526 10.84173,4.27823 16.47518,5.07542 3.74678,0.55803 5.52716,0.77061 5.9789,0.79718 0.42516,0.0266 0.53145,2.52442 0.90348,22.48065 0.10629,5.18171 0.2923,13.52559 0.42516,18.52129 0.18601,6.98866 0.34545,23.25126 0.26573,26.67916 0,0.37202 -0.93005,0.45174 -7.89214,0.61118 -4.35795,0.10629 -11.45291,0.2923 -15.75771,0.42516 -4.30481,0.13287 -10.46972,0.31888 -13.68503,0.3986 -3.21532,0.0797 -7.28097,0.18601 -9.03478,0.26572 -1.75381,0.0797 -7.20125,0.18602 -12.09065,0.26573 -4.88941,0.0797 -11.10746,0.18601 -13.8179,0.26573 -2.71043,0.0797 -7.89214,0.21259 -11.5592,0.2923 -3.64048,0.0797 -8.3173,0.26573 -10.36341,0.3986 -2.04612,0.13286 -8.68933,0.37202 -14.74795,0.50488 -6.05861,0.13287 -16.28917,0.47831 -22.7198,0.77061 -6.43064,0.29231 -17.96326,0.71747 -25.64282,0.93006 -7.67956,0.23915 -15.62485,0.47831 -17.67096,0.55803 -5.04884,0.21258 -24.42047,0.63774 -24.52676,0.53145 -0.10629,-0.10629 -0.26573,-10.20398 -0.5846,-38.66352 -0.15944,-12.78155 -0.31888,-24.3939 -0.39859,-25.77569 -0.0797,-1.38179 -0.23916,-14.53536 -0.3986,-29.23015 -0.26573,-27.50292 -0.37202,-34.78389 -0.79718,-56.20162 -0.15944,-6.88238 -0.37202,-18.28214 -0.53146,-25.37709 -0.13287,-7.09496 -0.31888,-14.61508 -0.39859,-16.74091 -0.0797,-2.12583 -0.21259,-7.73271 -0.29231,-12.48925 -0.0797,-4.75655 -0.18601,-9.35365 -0.23915,-10.23056 -0.0531,-0.8769 -0.15944,-15.99686 -0.23916,-33.61468 -0.2923,-61.75535 -0.63775,-87.84991 -1.32864,-104.82997 -0.66432,-15.97029 -0.77061,-19.2919 -0.53146,-19.50449 0.2923,-0.2923 2.86987,-0.47831 11.29347,-0.82375 12.17038,-0.47832 16.39546,-0.79719 22.95896,-1.75381 5.42087,-0.79719 18.22899,-3.50762 18.68073,-3.95936 0.21258,-0.21259 0.2923,-0.15944 0.5846,0.37202 z m 45.20045,390.43518 c 0,2.09925 0.0532,4.7034 0.1063,5.79288 0.69089,14.50879 1.27549,37.33489 1.8601,70.94957 0.21258,12.35638 0.50488,27.82179 0.66432,34.41186 0.23915,10.6823 0.77061,33.58811 1.22235,54.07579 0.63775,27.8218 0.77061,65.90072 0.23916,66.4056 -0.15944,0.13287 -4.4111,0.31888 -10.09769,0.3986 -5.3943,0.0797 -12.17038,0.21258 -15.01368,0.2923 -2.84329,0.0797 -9.91168,0.18601 -15.67799,0.26573 -14.2962,0.21258 -36.85657,0.66432 -63.24343,1.32864 -8.39703,0.21258 -19.21219,0.45174 -24.04845,0.53146 -4.80969,0.0797 -9.19421,0.21258 -9.72567,0.2923 l -0.95662,0.13286 -0.18601,-2.737 c -0.0797,-1.51465 -0.26573,-6.80266 -0.42517,-11.77178 -0.13286,-4.96913 -0.31887,-10.89488 -0.39859,-13.15357 -0.0797,-2.2587 -0.39859,-10.576 -0.66432,-18.46815 -0.66432,-18.0164 -1.24893,-33.16294 -1.59437,-40.39076 -0.13287,-3.08245 -0.31888,-7.62641 -0.3986,-10.09769 -0.0797,-2.49785 -0.21258,-5.47401 -0.26573,-6.64322 -0.13286,-2.28526 -0.21258,-4.17194 -0.79718,-20.72684 -0.3986,-10.97459 -0.58461,-15.67799 -0.79719,-20.32824 -0.0531,-1.38179 -0.23915,-5.63345 -0.39859,-9.43337 -0.13287,-3.79992 -0.39859,-9.67253 -0.53146,-13.02071 -0.15944,-3.37475 -0.34545,-7.67956 -0.42516,-9.56623 -0.0531,-1.91325 -0.23916,-5.84603 -0.37202,-8.76905 -1.03635,-22.21492 -1.19578,-36.88314 -0.45174,-43.44664 0.23915,-2.12583 0.45174,-3.93278 0.45174,-4.0125 0,-0.31888 10.07111,-1.35522 17.93668,-1.83353 9.03478,-0.53146 27.87494,-1.32864 37.86634,-1.59437 5.63345,-0.15944 14.90738,-0.37202 20.59398,-0.53146 17.91011,-0.45174 40.5502,-1.24893 52.34855,-1.83353 2.20555,-0.10629 6.05861,-0.23915 8.58304,-0.23915 l 4.57053,-0.0532 0.0266,3.77335 z"
       id="path3398" />
  </g>
</svg>
