<?xml version="1.0" encoding="UTF-8" standalone="no"?>
<!-- Created with Inkscape (http://www.inkscape.org/) -->

<svg
   xmlns:dc="http://purl.org/dc/elements/1.1/"
   xmlns:cc="http://creativecommons.org/ns#"
   xmlns:rdf="http://www.w3.org/1999/02/22-rdf-syntax-ns#"
   xmlns:svg="http://www.w3.org/2000/svg"
   xmlns="http://www.w3.org/2000/svg"
   xmlns:sodipodi="http://sodipodi.sourceforge.net/DTD/sodipodi-0.dtd"
   xmlns:inkscape="http://www.inkscape.org/namespaces/inkscape"
   width="465"
   height="720"
   viewBox="0 0 744.09448819 1052.3622047"
   id="svg2"
   version="1.1"
   inkscape:version="0.92.2 (30a58d1, 2017-08-07)"
   sodipodi:docname="n1-n2.svg">
  <defs
     id="defs4" />
  <sodipodi:namedview
     id="base"
     pagecolor="#ffffff"
     bordercolor="#666666"
     borderopacity="1.0"
     inkscape:pageopacity="0.0"
     inkscape:pageshadow="2"
     inkscape:zoom="2.8"
     inkscape:cx="218.88985"
     inkscape:cy="278.07632"
     inkscape:document-units="px"
     inkscape:current-layer="layer1"
     showgrid="true"
     inkscape:window-width="1920"
     inkscape:window-height="1017"
     inkscape:window-x="0"
     inkscape:window-y="35"
     inkscape:window-maximized="1"
     showguides="false">
    <inkscape:grid
       type="xygrid"
       id="grid3451" />
  </sodipodi:namedview>
  <metadata
     id="metadata7">
    <rdf:RDF>
      <cc:Work
         rdf:about="">
        <dc:format>image/svg+xml</dc:format>
        <dc:type
           rdf:resource="http://purl.org/dc/dcmitype/StillImage" />
        <dc:title></dc:title>
      </cc:Work>
    </rdf:RDF>
  </metadata>
  <g
     inkscape:label="Layer 1"
     inkscape:groupmode="layer"
     id="layer1">
    <path
       id="path3398"
       transform="matrix(1.6002032,0,0,1.6002032,0,-49.89205)"
       style="fill:#ff0000;stroke:none;stroke-width:0.62492061"
       d="m 133.23242,369.14453 c -0.75965,0.0678 -3.2658,0.16932 -6.09961,0.26172 -6.14419,0.18266 -12.08895,0.54969 -16.27343,0.99805 -2.62375,0.26569 -3.78756,0.24834 -5.83008,-0.084 -0.74727,-0.13284 -0.8125,0.0326 -0.8125,2.0918 0,1.59417 -0.29977,5.74697 -0.44922,6.12891 -0.0498,0.13284 -0.11523,0.69614 -0.14844,1.24414 -0.083,1.59416 -0.084,12.1071 0.0156,13.33593 0.0332,0.61443 0.15036,2.97206 0.25,5.26368 0.0996,2.27501 0.24899,5.67821 0.33203,7.55468 0.16606,3.37101 0.248,5.13273 0.41406,9.13477 0.0996,2.27501 0.33294,7.53759 0.58203,13.11719 0.083,1.9595 0.26657,7.00768 0.41602,11.20898 0.13285,4.2013 0.31541,8.98492 0.39843,10.62891 0.083,1.64398 0.13282,3.13765 0.13282,3.32031 0,0.51478 0.21579,6.59228 0.29882,8.46875 0.0498,0.91333 0.11621,2.5583 0.16602,3.6543 0.19927,5.11462 0.26561,6.57484 0.33203,7.88672 0.0332,0.78026 0.1162,2.526 0.16602,3.90429 0.0996,2.93925 0.19819,5.29632 0.41406,11.125 0.36533,9.4986 0.39937,10.52823 0.58203,14.61328 0.0498,1.096 0.1162,3.00554 0.16602,4.23438 0.0332,1.22884 0.11521,3.62065 0.18164,5.31445 0.0498,1.69381 0.1328,3.40321 0.16601,3.81836 0.0166,0.41515 0.10155,2.07672 0.16797,3.6875 l 0.0684,1.72852 h 4.49219 2.12305 l -0.043,-0.63282 c -0.0498,-0.94653 -0.16599,-4.25211 -0.26563,-7.35742 -0.083,-3.10531 -0.19823,-6.80725 -0.24805,-8.21875 -0.0498,-1.41151 -0.24995,-6.60905 -0.41601,-11.54101 -0.41515,-11.25882 -0.78022,-20.72538 -0.9961,-25.24219 -0.083,-1.92629 -0.19822,-4.76619 -0.24804,-6.31055 -0.0498,-1.56096 -0.1328,-3.41973 -0.16602,-4.15039 -0.083,-1.4281 -0.13467,-2.60763 -0.5,-12.95312 -0.24909,-6.85825 -0.3652,-9.79709 -0.49804,-12.70313 -0.0332,-0.86351 -0.14841,-3.51988 -0.24805,-5.89453 -0.083,-2.37465 -0.249,-6.04437 -0.33203,-8.13672 -0.0996,-2.10895 -0.21582,-4.7995 -0.26563,-5.97851 -0.0332,-1.19563 -0.14939,-3.65382 -0.23242,-5.48047 -0.64764,-13.88257 -0.74817,-23.04873 -0.2832,-27.15039 0.14945,-1.32848 0.2832,-2.458 0.2832,-2.50782 0,-0.19927 6.29363,-0.84757 11.20899,-1.14648 2.8059,-0.16507 6.97722,-0.3483 11.26171,-0.52344 -0.13432,-0.97863 -0.25792,-1.93808 -0.30859,-2.98242 -0.0596,-1.22749 -0.0153,-2.47941 0.0449,-3.73047 z" />
  </g>
</svg>
