<?xml version="1.0" encoding="UTF-8" standalone="no"?>
<!-- Created with Inkscape (http://www.inkscape.org/) -->

<svg
   xmlns:dc="http://purl.org/dc/elements/1.1/"
   xmlns:cc="http://creativecommons.org/ns#"
   xmlns:rdf="http://www.w3.org/1999/02/22-rdf-syntax-ns#"
   xmlns:svg="http://www.w3.org/2000/svg"
   xmlns="http://www.w3.org/2000/svg"
   xmlns:sodipodi="http://sodipodi.sourceforge.net/DTD/sodipodi-0.dtd"
   xmlns:inkscape="http://www.inkscape.org/namespaces/inkscape"
   width="465"
   height="720"
   viewBox="0 0 744.09448819 1052.3622047"
   id="svg2"
   version="1.1"
   inkscape:version="0.92.2 (30a58d1, 2017-08-07)"
   sodipodi:docname="n2-n8.svg">
  <defs
     id="defs4" />
  <sodipodi:namedview
     id="base"
     pagecolor="#ffffff"
     bordercolor="#666666"
     borderopacity="1.0"
     inkscape:pageopacity="0.0"
     inkscape:pageshadow="2"
     inkscape:zoom="2.8"
     inkscape:cx="221.1821"
     inkscape:cy="454.14208"
     inkscape:document-units="px"
     inkscape:current-layer="layer1"
     showgrid="true"
     inkscape:window-width="1920"
     inkscape:window-height="1017"
     inkscape:window-x="0"
     inkscape:window-y="35"
     inkscape:window-maximized="1"
     showguides="false">
    <inkscape:grid
       type="xygrid"
       id="grid3451" />
  </sodipodi:namedview>
  <metadata
     id="metadata7">
    <rdf:RDF>
      <cc:Work
         rdf:about="">
        <dc:format>image/svg+xml</dc:format>
        <dc:type
           rdf:resource="http://purl.org/dc/dcmitype/StillImage" />
        <dc:title></dc:title>
      </cc:Work>
    </rdf:RDF>
  </metadata>
  <g
     inkscape:label="Layer 1"
     inkscape:groupmode="layer"
     id="layer1">
    <path
       id="path3398"
       transform="matrix(1.6002032,0,0,1.6002032,0,-49.89205)"
       style="fill:#ff0000;stroke:none;stroke-width:0.62492061"
       d="m 134.22852,136.60742 c -1.21017,-5.9e-4 -2.42067,-0.004 -3.63086,0.002 0.19207,1.34737 0.40241,5.46895 0.76953,14.34765 0.38194,9.76429 0.58103,19.59386 0.66406,34.04102 0.11624,18.94737 0.39841,47.77574 0.49805,50.15039 0.0332,1.09599 0.11619,4.00227 0.16601,6.47656 0.0498,2.45768 0.1162,5.59632 0.16602,6.97461 0.083,2.82301 0.21579,7.9213 0.33203,13.7832 0.14945,7.50588 0.41502,18.26592 0.49805,20.83985 0.0996,2.95585 0.19915,9.1323 0.43164,25.90429 0.083,6.52613 0.23338,15.79268 0.3164,20.5918 0.16606,8.30297 0.16609,22.43543 0.0332,33.97656 l -0.0488,5.05469 c 0.0338,0 0.0677,0 0.10156,0 1.10367,3e-4 2.20688,4e-5 3.31055,0 1.00101,10e-6 2.00289,10e-6 3.0039,0 0.2567,0 0.51309,0 0.76954,0 -0.0664,-0.24648 -0.16498,-6.56104 -0.36133,-24.08594 -0.0996,-7.98745 -0.20019,-15.24391 -0.25,-16.10742 -0.0498,-0.86351 -0.14841,-9.0845 -0.24805,-18.26758 -0.16606,-17.18714 -0.23236,-21.73671 -0.49805,-35.12109 -0.0996,-4.30094 -0.23239,-11.42364 -0.33203,-15.85742 -0.083,-4.43379 -0.20019,-9.13442 -0.25,-10.46289 -0.0498,-1.32848 -0.13182,-4.83223 -0.18164,-7.80469 -0.0498,-2.97247 -0.11718,-5.84458 -0.15039,-6.39258 -0.0332,-0.54799 -0.0986,-9.99807 -0.14844,-21.00781 -0.18266,-38.59219 -0.40028,-54.89858 -0.83203,-65.50977 -0.30532,-7.33989 -0.41949,-10.3646 -0.40039,-11.52539 -0.30727,0 -0.61451,3e-5 -0.92187,0 -0.93556,-7e-5 -1.87108,-2.5e-4 -2.80664,0 z m -7.90821,232.87305 c 0.1253,0.13602 0.23826,0.27675 0.34961,0.41797 -0.0358,-0.15197 -0.1485,-0.29194 -0.34961,-0.41797 z" />
  </g>
</svg>
