<?xml version="1.0" encoding="UTF-8" standalone="no"?>
<!-- Created with Inkscape (http://www.inkscape.org/) -->

<svg
   xmlns:dc="http://purl.org/dc/elements/1.1/"
   xmlns:cc="http://creativecommons.org/ns#"
   xmlns:rdf="http://www.w3.org/1999/02/22-rdf-syntax-ns#"
   xmlns:svg="http://www.w3.org/2000/svg"
   xmlns="http://www.w3.org/2000/svg"
   xmlns:sodipodi="http://sodipodi.sourceforge.net/DTD/sodipodi-0.dtd"
   xmlns:inkscape="http://www.inkscape.org/namespaces/inkscape"
   width="465"
   height="720"
   viewBox="0 0 744.09448819 1052.3622047"
   id="svg2"
   version="1.1"
   inkscape:version="0.92.2 (30a58d1, 2017-08-07)"
   sodipodi:docname="n3-n2.svg">
  <defs
     id="defs4" />
  <sodipodi:namedview
     id="base"
     pagecolor="#ffffff"
     bordercolor="#666666"
     borderopacity="1.0"
     inkscape:pageopacity="0.0"
     inkscape:pageshadow="2"
     inkscape:zoom="5.6568543"
     inkscape:cx="178.65188"
     inkscape:cy="329.54191"
     inkscape:document-units="px"
     inkscape:current-layer="layer1"
     showgrid="true"
     inkscape:window-width="1920"
     inkscape:window-height="1017"
     inkscape:window-x="0"
     inkscape:window-y="35"
     inkscape:window-maximized="1"
     showguides="false">
    <inkscape:grid
       type="xygrid"
       id="grid3451" />
  </sodipodi:namedview>
  <metadata
     id="metadata7">
    <rdf:RDF>
      <cc:Work
         rdf:about="">
        <dc:format>image/svg+xml</dc:format>
        <dc:type
           rdf:resource="http://purl.org/dc/dcmitype/StillImage" />
        <dc:title />
      </cc:Work>
    </rdf:RDF>
  </metadata>
  <g
     inkscape:label="Layer 1"
     inkscape:groupmode="layer"
     id="layer1">
    <path
       id="path3398"
       transform="matrix(1.6002032,0,0,1.6002032,0,-49.89205)"
       style="fill:#ff0000;stroke:none;stroke-width:0.62492061"
       d="m 198.43164,367.07617 c -0.0799,0.002 -0.14452,0.004 -0.22461,0.006 -3.78615,0.083 -10.18058,0.29976 -14.19922,0.48242 -4.01864,0.18267 -11.22627,0.44723 -16.02539,0.58008 -4.79911,0.14945 -9.76431,0.29979 -11.04297,0.34961 -2.69033,0.11328 -11.02044,0.29584 -13.66211,0.3125 v 0.74024 1.5371 c 1e-5,0.54092 3e-5,1.08214 0,1.62305 -3e-5,0.61617 7e-5,1.23345 0,1.84961 -1.6e-4,0.30748 9.2e-4,0.61466 0.002,0.92188 0.93497,-0.0358 1.9394,-0.0759 2.61718,-0.0937 3.52046,-0.0996 9.31742,-0.2324 12.8711,-0.33204 11.1924,-0.2823 25.33986,-0.7792 32.71289,-1.14453 1.37829,-0.0664 3.78571,-0.15039 5.36328,-0.15039 l 1.58789,-0.0176 v -1.05273 -1.70703 -1.95508 -1.65234 c 0,-0.099 0,-0.19791 0,-0.29688 z" />
  </g>
</svg>
