<?xml version="1.0" encoding="UTF-8" standalone="no"?>
<!-- Created with Inkscape (http://www.inkscape.org/) -->

<svg
   xmlns:dc="http://purl.org/dc/elements/1.1/"
   xmlns:cc="http://creativecommons.org/ns#"
   xmlns:rdf="http://www.w3.org/1999/02/22-rdf-syntax-ns#"
   xmlns:svg="http://www.w3.org/2000/svg"
   xmlns="http://www.w3.org/2000/svg"
   xmlns:sodipodi="http://sodipodi.sourceforge.net/DTD/sodipodi-0.dtd"
   xmlns:inkscape="http://www.inkscape.org/namespaces/inkscape"
   width="465"
   height="720"
   viewBox="0 0 744.09448819 1052.3622047"
   id="svg2"
   version="1.1"
   inkscape:version="0.92.2 (30a58d1, 2017-08-07)"
   sodipodi:docname="n1-n1.1.svg">
  <defs
     id="defs4" />
  <sodipodi:namedview
     id="base"
     pagecolor="#ffffff"
     bordercolor="#666666"
     borderopacity="1.0"
     inkscape:pageopacity="0.0"
     inkscape:pageshadow="2"
     inkscape:zoom="4"
     inkscape:cx="168.23294"
     inkscape:cy="138.90694"
     inkscape:document-units="px"
     inkscape:current-layer="layer1"
     showgrid="true"
     inkscape:window-width="1920"
     inkscape:window-height="1017"
     inkscape:window-x="0"
     inkscape:window-y="35"
     inkscape:window-maximized="1"
     showguides="false">
    <inkscape:grid
       type="xygrid"
       id="grid3451" />
  </sodipodi:namedview>
  <metadata
     id="metadata7">
    <rdf:RDF>
      <cc:Work
         rdf:about="">
        <dc:format>image/svg+xml</dc:format>
        <dc:type
           rdf:resource="http://purl.org/dc/dcmitype/StillImage" />
        <dc:title></dc:title>
      </cc:Work>
    </rdf:RDF>
  </metadata>
  <g
     inkscape:label="Layer 1"
     inkscape:groupmode="layer"
     id="layer1">
    <path
       id="path3398"
       transform="matrix(1.6002032,0,0,1.6002032,0,-49.89205)"
       style="fill:#ff0000;stroke:none;stroke-width:0.62492061"
       d="m 109.13281,530.59375 c 0.0591,0.50029 0.11154,1.22958 0.14844,2.2168 0.0498,1.51114 0.13281,3.66864 0.16602,4.81445 0.0498,1.1458 0.15036,4.13508 0.25,6.64258 0.083,2.5075 0.19822,5.34751 0.24804,6.31054 0.0332,0.96315 0.1162,4.73342 0.16602,8.38672 0.0498,3.65331 0.1162,7.1229 0.16601,7.72071 0.0498,0.59781 0.11621,3.50409 0.16602,6.47656 0.0498,2.97246 0.13281,7.0073 0.16602,8.9668 0.0498,1.9595 0.11619,7.04184 0.16601,11.29297 0.21588,19.8938 0.28319,25.73802 0.34961,26.73437 0.11624,1.76023 0.1986,40.20428 0.082,43.06055 -0.0498,1.46131 -0.0498,2.67183 0,2.70508 0.0664,0.0331 0.084,0.26653 0.0508,0.51562 -0.0332,0.34871 -0.0996,9.98116 -0.0664,11.12695 0,0.0997 0.13276,0.19922 0.29882,0.19922 1.6772,-0.0169 5.81148,0.26465 5.99415,0.41406 0.18255,0.13286 0.21682,0.13249 0.11718,-0.0176 -0.0664,-0.13286 -0.0167,-0.21485 0.13282,-0.21485 0.16595,0 0.26562,-0.15028 0.26562,-0.38281 0.0166,-1.22884 -0.0341,-8.1851 -0.11719,-17.25195 -0.083,-8.75129 -0.0665,-10.46185 0.13281,-10.71094 0.13286,-0.14946 0.15033,-0.23244 0.0508,-0.16602 -0.13285,0.083 -0.16701,-1.44615 -0.11719,-5.66406 0.083,-7.38964 0.0664,-12.85283 -0.0332,-15.47656 -0.0332,-1.14581 -0.1162,-4.61539 -0.16602,-7.7207 -0.0498,-3.10531 -0.1162,-7.2573 -0.16602,-9.2168 -0.0498,-1.9595 -0.13182,-8.53551 -0.18164,-14.61328 -0.0498,-6.06116 -0.11717,-11.07714 -0.15039,-11.12696 -0.0332,-0.0664 -0.11521,-5.61248 -0.18164,-12.33789 -0.083,-9.5318 -0.0674,-12.28804 0.082,-12.4707 0.11625,-0.13285 0.16701,-0.38081 0.11719,-0.54687 -0.0498,-0.16606 -0.1162,-1.81006 -0.16601,-3.66993 -0.0498,-1.84325 -0.1162,-3.42185 -0.16602,-3.48828 -0.11624,-0.19927 -0.34856,-4.49909 -0.59766,-11.65625 -0.0996,-2.60713 -0.25095,-6.32761 -0.33398,-8.28711 -0.0401,-0.94574 -0.0709,-1.79596 -0.0898,-2.44531 -0.22466,-0.0252 -0.44944,-0.0495 -0.67188,-0.0898 -0.73831,-7e-5 -1.47652,0.004 -2.21484,0.004 -0.63447,-0.0119 -1.27201,-0.0522 -1.9043,0.0215 -0.66947,0.0427 -1.33201,0.024 -1.99219,-0.0547 z" />
  </g>
</svg>
