<?xml version="1.0" encoding="UTF-8" standalone="no"?>
<!-- Created with Inkscape (http://www.inkscape.org/) -->

<svg
   xmlns:dc="http://purl.org/dc/elements/1.1/"
   xmlns:cc="http://creativecommons.org/ns#"
   xmlns:rdf="http://www.w3.org/1999/02/22-rdf-syntax-ns#"
   xmlns:svg="http://www.w3.org/2000/svg"
   xmlns="http://www.w3.org/2000/svg"
   xmlns:sodipodi="http://sodipodi.sourceforge.net/DTD/sodipodi-0.dtd"
   xmlns:inkscape="http://www.inkscape.org/namespaces/inkscape"
   width="465"
   height="720"
   viewBox="0 0 744.09448819 1052.3622047"
   id="svg2"
   version="1.1"
   inkscape:version="0.92.2 (30a58d1, 2017-08-07)"
   sodipodi:docname="n6-n5.svg">
  <defs
     id="defs4" />
  <sodipodi:namedview
     id="base"
     pagecolor="#ffffff"
     bordercolor="#666666"
     borderopacity="1.0"
     inkscape:pageopacity="0.0"
     inkscape:pageshadow="2"
     inkscape:zoom="5.6"
     inkscape:cx="314.29536"
     inkscape:cy="399.44538"
     inkscape:document-units="px"
     inkscape:current-layer="layer1"
     showgrid="true"
     inkscape:window-width="1920"
     inkscape:window-height="1017"
     inkscape:window-x="0"
     inkscape:window-y="35"
     inkscape:window-maximized="1"
     showguides="false">
    <inkscape:grid
       type="xygrid"
       id="grid3451" />
  </sodipodi:namedview>
  <metadata
     id="metadata7">
    <rdf:RDF>
      <cc:Work
         rdf:about="">
        <dc:format>image/svg+xml</dc:format>
        <dc:type
           rdf:resource="http://purl.org/dc/dcmitype/StillImage" />
        <dc:title></dc:title>
      </cc:Work>
    </rdf:RDF>
  </metadata>
  <g
     inkscape:label="Layer 1"
     inkscape:groupmode="layer"
     id="layer1">
    <path
       id="path3398"
       transform="matrix(1.6002032,0,0,1.6002032,0,-49.89205)"
       style="fill:#ff0000;stroke:none;stroke-width:0.62492061"
       d="m 327.58984,316.04883 c -1.66862,0.0863 -18.0541,0.24105 -34.58007,0.33594 l -20.77735,0.0996 v 0.88671 1.20508 c 0.0695,0.15073 0.12022,0.30516 0.0937,0.47656 0.15319,0.67082 0.14248,0.93273 0.0527,1.7793 0.004,-0.0239 0.007,-0.0955 0.0137,-0.0723 0.0424,0.13861 0.009,0.29061 0.0117,0.43554 0.005,0.27122 0.01,0.54122 0.01,0.8125 -0.003,0.30061 -0.002,0.60153 -0.002,0.90235 l 10.10156,-0.0156 c 5.72905,0 11.36006,-0.0332 12.50586,-0.0664 1.14581,-0.0166 9.08271,-0.0996 17.63477,-0.16601 l 14.93554,-0.11328 V 321.74414 320 v -1.21875 -1.31641 z m -55.26367,3.0039 c -0.023,-0.10067 -0.0632,-0.25433 -0.0937,-0.37695 v 0.65039 c 0.0555,-0.0965 0.0804,-0.18588 0.0937,-0.27344 z m -0.0937,-0.37695 v -0.0996 c -0.0221,-0.0479 -0.0346,-0.0975 -0.0605,-0.14453 0.0233,0.0909 0.0407,0.16474 0.0605,0.24414 z" />
  </g>
</svg>
