<?xml version="1.0" encoding="UTF-8" standalone="no"?>
<!-- Created with Inkscape (http://www.inkscape.org/) -->

<svg
   xmlns:dc="http://purl.org/dc/elements/1.1/"
   xmlns:cc="http://creativecommons.org/ns#"
   xmlns:rdf="http://www.w3.org/1999/02/22-rdf-syntax-ns#"
   xmlns:svg="http://www.w3.org/2000/svg"
   xmlns="http://www.w3.org/2000/svg"
   xmlns:sodipodi="http://sodipodi.sourceforge.net/DTD/sodipodi-0.dtd"
   xmlns:inkscape="http://www.inkscape.org/namespaces/inkscape"
   width="465"
   height="720"
   viewBox="0 0 744.09448819 1052.3622047"
   id="svg2"
   version="1.1"
   inkscape:version="0.92.2 (30a58d1, 2017-08-07)"
   sodipodi:docname="n5-n5.1.svg">
  <defs
     id="defs4" />
  <sodipodi:namedview
     id="base"
     pagecolor="#ffffff"
     bordercolor="#666666"
     borderopacity="1.0"
     inkscape:pageopacity="0.0"
     inkscape:pageshadow="2"
     inkscape:zoom="2.8"
     inkscape:cx="325.17929"
     inkscape:cy="543.53442"
     inkscape:document-units="px"
     inkscape:current-layer="layer1"
     showgrid="true"
     inkscape:window-width="1920"
     inkscape:window-height="1017"
     inkscape:window-x="0"
     inkscape:window-y="35"
     inkscape:window-maximized="1"
     showguides="false">
    <inkscape:grid
       type="xygrid"
       id="grid3451" />
  </sodipodi:namedview>
  <metadata
     id="metadata7">
    <rdf:RDF>
      <cc:Work
         rdf:about="">
        <dc:format>image/svg+xml</dc:format>
        <dc:type
           rdf:resource="http://purl.org/dc/dcmitype/StillImage" />
        <dc:title></dc:title>
      </cc:Work>
    </rdf:RDF>
  </metadata>
  <g
     inkscape:label="Layer 1"
     inkscape:groupmode="layer"
     id="layer1">
    <path
       id="path3398"
       transform="matrix(1.6002032,0,0,1.6002032,0,-49.89205)"
       style="fill:#ff0000;stroke:none;stroke-width:0.62492061"
       d="m 273.29883,39.695312 -3.72071,0.0332 -3.70312,0.0332 0.084,14.248047 c 0.13286,23.264914 -9.1e-4,70.376104 -0.25,84.740234 -0.083,4.64966 -0.16499,23.71349 -0.34765,73.39844 -0.0664,15.29407 -0.1328,27.99798 -0.16602,28.23047 -0.13284,1.14581 -0.0674,63.1355 0.082,67.75195 0.0996,2.87283 0.1836,5.84453 0.1836,6.5918 v 0.8125 c 0.20505,9e-5 0.41001,-8.3e-4 0.61523,0 0.70147,0.008 1.39438,0.0387 2.09375,-0.0215 0.32325,0.005 0.73222,-0.0106 1.125,0.004 0.9003,-0.23362 1.82588,-0.35278 2.75586,-0.33985 -0.44527,-5.50937 -0.47857,-53.85817 -0.0977,-101.61718 0.0498,-7.85461 0.15037,-23.18269 0.2168,-34.04297 0.0498,-10.87689 0.13182,-22.41809 0.18164,-25.65625 0.0498,-3.23816 0.1162,-14.08135 0.16602,-24.07813 0.0498,-9.99677 0.1162,-21.88748 0.16601,-26.40429 0.0498,-4.516842 0.1162,-13.301109 0.16602,-19.511722 0.0498,-6.21062 0.11626,-12.869615 0.16601,-14.779297 0.0498,-1.926289 0.11718,-9.315514 0.1836,-16.439453 z" />
  </g>
</svg>
