<?xml version="1.0" encoding="UTF-8" standalone="no"?>
<!-- Created with Inkscape (http://www.inkscape.org/) -->

<svg
   xmlns:dc="http://purl.org/dc/elements/1.1/"
   xmlns:cc="http://creativecommons.org/ns#"
   xmlns:rdf="http://www.w3.org/1999/02/22-rdf-syntax-ns#"
   xmlns:svg="http://www.w3.org/2000/svg"
   xmlns="http://www.w3.org/2000/svg"
   xmlns:sodipodi="http://sodipodi.sourceforge.net/DTD/sodipodi-0.dtd"
   xmlns:inkscape="http://www.inkscape.org/namespaces/inkscape"
   width="465"
   height="720"
   viewBox="0 0 744.09448819 1052.3622047"
   id="svg2"
   version="1.1"
   inkscape:version="0.92.2 (30a58d1, 2017-08-07)"
   sodipodi:docname="n7-n6.svg">
  <defs
     id="defs4" />
  <sodipodi:namedview
     id="base"
     pagecolor="#ffffff"
     bordercolor="#666666"
     borderopacity="1.0"
     inkscape:pageopacity="0.0"
     inkscape:pageshadow="2"
     inkscape:zoom="1.7066169"
     inkscape:cx="485.61889"
     inkscape:cy="255.37104"
     inkscape:document-units="px"
     inkscape:current-layer="layer1"
     showgrid="true"
     inkscape:window-width="1920"
     inkscape:window-height="1017"
     inkscape:window-x="0"
     inkscape:window-y="35"
     inkscape:window-maximized="1"
     showguides="false">
    <inkscape:grid
       type="xygrid"
       id="grid3451" />
  </sodipodi:namedview>
  <metadata
     id="metadata7">
    <rdf:RDF>
      <cc:Work
         rdf:about="">
        <dc:format>image/svg+xml</dc:format>
        <dc:type
           rdf:resource="http://purl.org/dc/dcmitype/StillImage" />
        <dc:title></dc:title>
      </cc:Work>
    </rdf:RDF>
  </metadata>
  <g
     inkscape:label="Layer 1"
     inkscape:groupmode="layer"
     id="layer1">
    <path
       id="path3398"
       transform="matrix(1.6002032,0,0,1.6002032,0,-49.89205)"
       style="fill:#ff0000;stroke:none;stroke-width:0.62492061"
       d="m 328.20898,323.08789 -0.0605,1.58203 c -0.0333,1.17903 -0.1162,7.93759 -0.16602,15.01172 -0.0996,14.8457 -0.20015,28.62901 -0.34961,46.74609 -0.0664,7.02431 -0.0996,28.69605 -0.0664,48.15821 0.0664,45.45044 0.0664,56.60979 0,99.55273 -0.011,12.90717 8.5e-4,24.05907 0.0254,32.69531 0.32032,5.1e-4 0.6408,0.006 0.96093,0.0117 -0.0262,-0.003 -0.0439,-0.0107 -0.0293,-0.0312 0.0688,-0.0964 0.21705,-0.0954 0.33008,-0.13086 0.73447,-0.2304 1.44368,-0.1596 2.19531,-0.10351 0.78302,0.0242 1.5679,-0.008 2.35156,-0.008 0.27542,0.002 0.5508,7e-4 0.82617,0.002 -0.14052,-1.08995 -0.16392,-5.84301 -0.13476,-25.79492 0.0332,-39.12358 0.0176,-68.6647 -0.082,-99.63477 -0.0498,-15.94169 -0.0332,-34.73936 0.0332,-41.76367 0.0664,-7.04091 0.166,-20.14412 0.23242,-29.14453 0.19785,-29.00717 0.38188,-44.61393 0.56445,-47.14844 h -2.68945 -1.96484 z" />
  </g>
</svg>
