<?xml version="1.0" encoding="UTF-8" standalone="no"?>
<!-- Created with Inkscape (http://www.inkscape.org/) -->

<svg
   xmlns:dc="http://purl.org/dc/elements/1.1/"
   xmlns:cc="http://creativecommons.org/ns#"
   xmlns:rdf="http://www.w3.org/1999/02/22-rdf-syntax-ns#"
   xmlns:svg="http://www.w3.org/2000/svg"
   xmlns="http://www.w3.org/2000/svg"
   xmlns:sodipodi="http://sodipodi.sourceforge.net/DTD/sodipodi-0.dtd"
   xmlns:inkscape="http://www.inkscape.org/namespaces/inkscape"
   width="465"
   height="720"
   viewBox="0 0 744.09448819 1052.3622047"
   id="svg2"
   version="1.1"
   inkscape:version="0.92.2 (30a58d1, 2017-08-07)"
   sodipodi:docname="7-7.1.svg">
  <defs
     id="defs4" />
  <sodipodi:namedview
     id="base"
     pagecolor="#ffffff"
     bordercolor="#666666"
     borderopacity="1.0"
     inkscape:pageopacity="0.0"
     inkscape:pageshadow="2"
     inkscape:zoom="5.2157964"
     inkscape:cx="300.94615"
     inkscape:cy="104.64646"
     inkscape:document-units="px"
     inkscape:current-layer="layer1"
     showgrid="true"
     inkscape:window-width="1920"
     inkscape:window-height="1017"
     inkscape:window-x="0"
     inkscape:window-y="35"
     inkscape:window-maximized="1"
     showguides="false">
    <inkscape:grid
       type="xygrid"
       id="grid3451" />
  </sodipodi:namedview>
  <metadata
     id="metadata7">
    <rdf:RDF>
      <cc:Work
         rdf:about="">
        <dc:format>image/svg+xml</dc:format>
        <dc:type
           rdf:resource="http://purl.org/dc/dcmitype/StillImage" />
        <dc:title></dc:title>
      </cc:Work>
    </rdf:RDF>
  </metadata>
  <g
     inkscape:label="Layer 1"
     inkscape:groupmode="layer"
     id="layer1">
    <path
       id="path3398"
       transform="matrix(1.6002032,0,0,1.6002032,0,-49.89205)"
       style="fill:#ff0000;stroke:none;stroke-width:0.62492061"
       d="m 328.57617,574.93555 c -0.31687,-0.008 -0.63843,0.0568 -0.95898,0.0996 0.004,1.65159 0.008,3.54328 0.0156,4.1875 0.24909,23.13206 0.39849,97.54285 0.19922,97.875 -0.0498,0.0664 -0.0332,0.19921 0.0332,0.29882 0.083,0.13286 0.73109,0.11733 2.27539,-0.0488 1.19563,-0.11624 2.73908,-0.26561 3.45313,-0.33204 l 1.29492,-0.0996 -0.082,-3.83594 c -0.19927,-7.53911 -0.38277,-32.41569 -0.54883,-74.47852 l -0.0937,-23.44726 c -0.17513,4.8e-4 -0.35027,-0.001 -0.52539,0 -0.42576,-6.3e-4 -0.84966,-0.017 -1.27539,-0.0137 -1.00576,0.0894 -1.73031,0.0684 -2.74609,-0.17187 -0.0146,-0.003 -0.0455,-0.0128 -0.0645,-0.0176 -0.3256,-3.2e-4 -0.65163,0.008 -0.97656,-0.0156 z" />
  </g>
</svg>
