<?xml version="1.0" encoding="UTF-8" standalone="no"?>
<!-- Created with Inkscape (http://www.inkscape.org/) -->

<svg
   xmlns:dc="http://purl.org/dc/elements/1.1/"
   xmlns:cc="http://creativecommons.org/ns#"
   xmlns:rdf="http://www.w3.org/1999/02/22-rdf-syntax-ns#"
   xmlns:svg="http://www.w3.org/2000/svg"
   xmlns="http://www.w3.org/2000/svg"
   xmlns:sodipodi="http://sodipodi.sourceforge.net/DTD/sodipodi-0.dtd"
   xmlns:inkscape="http://www.inkscape.org/namespaces/inkscape"
   width="465"
   height="720"
   viewBox="0 0 744.09448819 1052.3622047"
   id="svg2"
   version="1.1"
   inkscape:version="0.92.2 (30a58d1, 2017-08-07)"
   sodipodi:docname="n8-n8.1.svg">
  <defs
     id="defs4" />
  <sodipodi:namedview
     id="base"
     pagecolor="#ffffff"
     bordercolor="#666666"
     borderopacity="1.0"
     inkscape:pageopacity="0.0"
     inkscape:pageshadow="2"
     inkscape:zoom="5.6"
     inkscape:cx="163.49135"
     inkscape:cy="562.46801"
     inkscape:document-units="px"
     inkscape:current-layer="layer1"
     showgrid="true"
     inkscape:window-width="1920"
     inkscape:window-height="1017"
     inkscape:window-x="0"
     inkscape:window-y="35"
     inkscape:window-maximized="1"
     showguides="false">
    <inkscape:grid
       type="xygrid"
       id="grid3451" />
  </sodipodi:namedview>
  <metadata
     id="metadata7">
    <rdf:RDF>
      <cc:Work
         rdf:about="">
        <dc:format>image/svg+xml</dc:format>
        <dc:type
           rdf:resource="http://purl.org/dc/dcmitype/StillImage" />
        <dc:title></dc:title>
      </cc:Work>
    </rdf:RDF>
  </metadata>
  <g
     inkscape:label="Layer 1"
     inkscape:groupmode="layer"
     id="layer1">
    <path
       id="path3398"
       transform="matrix(1.6002032,0,0,1.6002032,0,-49.89205)"
       style="fill:#ff0000;stroke:none;stroke-width:0.62492061"
       d="m 123.70703,128.37891 c -7.52388,-0.0449 -18.75063,0.10197 -33.023436,0.42578 -9.697869,0.23248 -42.262434,0.28139 -54.384766,0.082 -4.61645,-0.083 -9.714415,-0.16503 -11.341797,-0.18164 L 22,128.67188 l 0.0332,3.30273 c 0.0166,1.81004 0.09959,3.33885 0.166016,3.38867 0.08303,0.0498 0.15039,0.29876 0.15039,0.56445 0,0.2657 0.08299,0.53222 0.166016,0.58204 0.09963,0.0664 2.174162,0.0986 4.615234,0.082 2.441073,0 14.148241,-0.0488 26.021485,-0.082 11.873248,-0.0332 23.864501,-0.10061 26.654297,-0.15039 2.789795,-0.0498 7.387933,-0.13183 10.210937,-0.18165 2.839621,-0.0498 6.044633,-0.1328 7.140625,-0.16601 1.095992,-0.0498 7.456257,-0.16794 14.115237,-0.26758 9.46538,-0.14946 12.886,-0.14946 15.60937,0 1.03557,0.0625 1.92012,0.12807 2.58008,0.1875 -5.3e-4,-1.4895 -1.7e-4,-2.97899 -0.002,-4.46875 -1e-5,-0.39982 -5.8e-4,-0.80135 0,-1.20117 4.9e-4,-0.25229 -0.0153,-0.50431 0.004,-0.75586 0.003,-0.0333 0.008,-0.0664 0.0117,-0.0996 -0.0243,-0.31098 -0.0264,-0.61918 -0.0332,-0.92773 -1.58757,-0.0498 -3.44023,-0.0859 -5.73633,-0.0996 z m 5.88086,0.10351 c -0.0184,0.0523 -0.0844,0.55477 -0.11133,0.83399 -0.002,0.0214 0.003,0.0431 0.004,0.0645 0.0316,-0.29977 0.0801,-0.59839 0.10937,-0.89844 0,0 -0.002,0 -0.002,0 z" />
  </g>
</svg>
